{"glyphs":{"0":{"ha":791,"x_min":71,"x_max":720,"o":"m 720 415 q 396 -14 720 -14 q 156 89 242 -14 q 71 415 71 191 l 71 576 q 155 900 71 800 q 395 1001 240 1001 q 634 900 549 1001 q 720 576 720 800 l 720 415 m 551 602 q 512 805 551 744 q 395 865 473 865 q 278 805 317 865 q 239 602 239 744 l 239 391 q 279 185 239 249 q 396 122 319 122 q 512 185 474 122 q 551 391 551 248 l 551 602 z "},"1":{"ha":791,"x_min":114,"x_max":524,"o":"m 355 0 l 355 788 l 114 707 l 114 848 l 503 991 l 524 991 l 524 0 l 355 0 z "},"2":{"ha":791,"x_min":54,"x_max":739,"o":"m 73 0 l 73 117 l 395 465 q 477 567 448 524 q 520 643 507 609 q 532 711 532 677 q 494 823 532 780 q 388 865 456 865 q 266 816 308 865 q 223 686 223 767 l 54 686 q 94 845 54 773 q 210 959 134 917 q 390 1001 286 1001 q 558 968 488 1001 q 665 873 628 935 q 701 728 701 812 q 650 555 701 642 q 499 365 598 469 l 285 136 l 739 136 l 739 0 l 73 0 z "},"3":{"ha":791,"x_min":53,"x_max":712,"o":"m 546 507 q 671 417 631 478 q 712 277 712 356 q 669 121 712 186 q 549 21 625 55 q 378 -14 473 -14 q 216 19 290 -14 q 97 114 142 51 q 53 266 53 177 l 222 266 q 241 191 222 224 q 297 140 261 158 q 380 122 333 122 q 500 163 457 122 q 543 277 543 203 q 496 398 543 359 q 363 437 449 437 l 265 437 l 265 530 l 265 570 l 363 570 q 486 611 444 570 q 528 720 528 652 q 491 827 528 789 q 380 865 454 865 q 304 849 338 865 q 251 802 270 832 q 231 730 231 771 l 62 730 q 103 869 62 808 q 216 966 144 931 q 378 1001 288 1001 q 546 969 474 1001 q 657 874 618 937 q 697 720 697 811 q 658 599 697 658 q 546 507 618 540 z "},"4":{"ha":791,"x_min":36,"x_max":755,"o":"m 755 219 l 633 219 l 633 0 l 465 0 l 465 219 l 41 219 l 36 322 l 460 987 l 595 987 l 633 987 l 633 355 l 755 355 l 755 219 m 465 355 l 465 759 l 452 737 l 212 355 l 465 355 z "},"5":{"ha":791,"x_min":85,"x_max":734,"o":"m 170 987 l 703 987 l 703 843 l 309 843 l 283 610 q 351 637 311 625 q 437 648 391 648 q 596 608 530 648 q 699 493 663 568 q 734 316 734 418 q 698 148 734 222 q 589 30 662 73 q 409 -14 515 -14 q 252 19 324 -14 q 136 116 180 52 q 85 268 91 179 l 250 268 q 300 160 258 198 q 408 122 341 122 q 526 176 486 122 q 566 321 566 231 q 521 461 566 408 q 393 513 476 513 q 331 506 357 513 q 289 487 306 499 q 250 456 271 475 l 115 490 l 170 987 z "},"6":{"ha":791,"x_min":78,"x_max":734,"o":"m 452 655 q 608 610 545 655 q 703 489 672 564 q 734 324 734 414 q 696 152 734 229 q 584 31 657 75 q 412 -14 511 -14 q 233 39 309 -14 q 118 180 157 92 q 78 374 78 269 l 78 440 q 129 721 78 596 q 290 919 180 845 q 568 993 399 993 l 589 993 l 589 854 l 577 854 q 406 817 475 854 q 298 718 336 781 q 251 573 260 655 q 340 634 288 613 q 452 655 391 655 m 410 123 q 494 148 458 123 q 548 218 529 173 q 567 320 567 262 q 549 421 567 376 q 495 492 530 466 q 410 519 459 519 q 311 488 355 519 q 248 411 267 458 l 248 359 q 269 230 248 283 q 328 150 291 177 q 410 123 365 123 z "},"7":{"ha":791,"x_min":47,"x_max":732,"o":"m 340 0 l 162 0 l 555 852 l 47 852 l 47 987 l 732 987 l 732 894 l 340 0 z "},"8":{"ha":791,"x_min":71,"x_max":720,"o":"m 560 509 q 677 413 635 475 q 720 269 720 350 q 678 116 720 180 q 563 19 636 52 q 395 -14 489 -14 q 228 19 302 -14 q 113 116 155 52 q 71 269 71 180 q 113 413 71 351 q 229 509 155 475 q 129 600 165 543 q 92 727 92 656 q 131 875 92 813 q 238 969 170 937 q 395 1001 307 1001 q 553 969 484 1001 q 660 875 621 937 q 699 727 699 813 q 662 600 699 656 q 560 509 625 543 m 395 865 q 297 826 334 865 q 261 721 261 787 q 297 615 261 655 q 395 575 334 575 q 494 615 458 575 q 530 721 530 654 q 493 825 530 785 q 395 865 457 865 m 395 122 q 509 164 468 122 q 551 279 551 205 q 531 363 551 327 q 476 419 512 399 q 394 439 441 439 q 312 419 347 439 q 258 363 277 399 q 239 279 239 327 q 281 164 239 205 q 395 122 323 122 z "},"9":{"ha":791,"x_min":63,"x_max":709,"o":"m 384 1001 q 561 948 488 1001 q 672 803 635 895 q 709 600 709 712 l 709 544 q 596 147 709 300 q 220 -5 482 -5 l 207 -5 l 207 136 l 219 136 q 457 208 382 136 q 540 411 531 281 q 452 348 502 371 q 348 325 402 325 q 192 370 256 325 q 95 490 127 415 q 63 656 63 566 q 101 831 63 752 q 212 955 140 909 q 384 1001 285 1001 m 385 457 q 478 486 436 457 q 541 561 519 515 l 541 627 q 520 756 541 703 q 463 837 498 810 q 383 865 427 865 q 301 837 336 865 q 248 763 267 810 q 230 661 230 717 q 247 559 230 606 q 299 485 264 513 q 385 457 334 457 z "}," ":{"ha":346,"x_min":0,"x_max":0,"o":""},"A":{"ha":926,"x_min":12,"x_max":916,"o":"m 653 227 l 274 227 l 195 0 l 12 0 l 384 987 l 500 987 l 542 987 l 916 0 l 732 0 l 653 227 m 604 368 l 463 773 l 323 368 l 604 368 z "},"Á":{"ha":926,"x_min":12,"x_max":916,"o":"m 12 0 m 653 227 l 274 227 l 195 0 l 12 0 l 384 987 l 500 987 l 542 987 l 916 0 l 732 0 l 653 227 m 604 368 l 463 773 l 323 368 l 604 368 m 706 1252 l 518 1046 l 382 1046 l 515 1252 l 706 1252 z "},"Â":{"ha":926,"x_min":12,"x_max":916,"o":"m 12 0 m 653 227 l 274 227 l 195 0 l 12 0 l 384 987 l 500 987 l 542 987 l 916 0 l 732 0 l 653 227 m 604 368 l 463 773 l 323 368 l 604 368 m 703 1057 l 568 1057 l 465 1162 l 363 1057 l 231 1057 l 231 1065 l 416 1253 l 515 1253 l 703 1064 l 703 1057 z "},"Ä":{"ha":926,"x_min":12,"x_max":916,"o":"m 12 0 m 653 227 l 274 227 l 195 0 l 12 0 l 384 987 l 500 987 l 542 987 l 916 0 l 732 0 l 653 227 m 604 368 l 463 773 l 323 368 l 604 368 m 310 1218 q 373 1195 349 1218 q 397 1137 397 1171 q 373 1079 397 1102 q 310 1057 349 1057 q 247 1079 271 1057 q 223 1137 223 1102 q 247 1195 223 1172 q 310 1218 271 1218 m 623 1217 q 685 1194 661 1217 q 709 1136 709 1171 q 685 1078 709 1101 q 623 1055 661 1055 q 559 1078 583 1055 q 536 1136 536 1101 q 559 1194 536 1171 q 623 1217 583 1217 z "},"À":{"ha":926,"x_min":12,"x_max":916,"o":"m 12 0 m 653 227 l 274 227 l 195 0 l 12 0 l 384 987 l 500 987 l 542 987 l 916 0 l 732 0 l 653 227 m 604 368 l 463 773 l 323 368 l 604 368 m 412 1046 l 229 1252 l 419 1252 l 552 1046 l 412 1046 z "},"Å":{"ha":926,"x_min":12,"x_max":916,"o":"m 12 0 m 653 227 l 274 227 l 195 0 l 12 0 l 384 987 l 500 987 l 542 987 l 916 0 l 732 0 l 653 227 m 604 368 l 463 773 l 323 368 l 604 368 m 466 1315 q 543 1296 508 1315 q 597 1244 577 1277 q 616 1174 616 1212 q 597 1104 616 1135 q 543 1054 577 1072 q 466 1036 508 1036 q 390 1054 424 1036 q 336 1104 355 1072 q 316 1174 316 1135 q 336 1245 316 1213 q 390 1296 355 1277 q 466 1315 424 1315 m 466 1099 q 520 1121 499 1099 q 542 1174 542 1143 q 520 1228 542 1206 q 466 1251 499 1251 q 412 1228 433 1251 q 391 1174 391 1206 q 412 1121 391 1143 q 466 1099 433 1099 z "},"Ã":{"ha":926,"x_min":12,"x_max":916,"o":"m 12 0 m 653 227 l 274 227 l 195 0 l 12 0 l 384 987 l 500 987 l 542 987 l 916 0 l 732 0 l 653 227 m 604 368 l 463 773 l 323 368 l 604 368 m 715 1238 q 695 1148 715 1188 q 641 1085 675 1108 q 563 1063 606 1063 q 511 1071 532 1063 q 461 1095 490 1079 q 420 1116 438 1109 q 380 1123 403 1123 q 336 1104 353 1123 q 319 1054 319 1084 l 216 1059 q 235 1149 216 1108 q 290 1213 255 1190 q 367 1236 324 1236 q 412 1229 392 1236 q 462 1206 433 1221 q 508 1183 489 1191 q 551 1176 528 1176 q 594 1195 576 1176 q 612 1246 612 1215 l 715 1238 z "},"Æ":{"ha":1305,"x_min":-5,"x_max":1274,"o":"m 1274 137 l 1274 0 l 777 0 l 665 0 l 655 231 l 319 231 l 195 0 l -5 0 l 557 987 l 663 987 l 792 987 l 1232 987 l 1232 850 l 798 850 l 809 578 l 1177 578 l 1177 442 l 815 442 l 827 137 l 1274 137 m 649 379 l 631 812 l 399 379 l 649 379 z "},"B":{"ha":878,"x_min":99,"x_max":807,"o":"m 641 514 q 765 431 723 492 q 807 289 807 370 q 717 74 807 149 q 463 0 627 0 l 165 0 l 99 0 l 99 987 l 438 987 q 694 921 605 987 q 784 720 784 855 q 747 597 784 651 q 641 514 710 543 m 275 846 l 275 572 l 439 572 q 565 608 520 572 q 609 709 609 644 q 568 813 609 781 q 438 846 526 846 l 275 846 m 463 141 q 588 181 545 141 q 632 289 632 222 q 471 444 632 444 l 275 444 l 275 141 l 463 141 z "},"C":{"ha":907,"x_min":68,"x_max":856,"o":"m 855 323 q 800 148 846 224 q 669 29 753 72 q 467 -14 585 -14 q 256 44 346 -14 q 117 207 165 101 q 68 454 68 313 l 68 532 q 118 780 68 674 q 259 943 168 886 q 474 1001 351 1001 q 672 958 590 1001 q 800 838 754 915 q 856 660 846 761 l 681 660 q 622 809 669 759 q 474 859 575 859 q 303 775 361 859 q 245 534 245 691 l 245 454 q 299 214 245 300 q 467 129 353 129 q 582 151 538 129 q 649 215 627 173 q 680 323 672 258 l 855 323 z "},"Ç":{"ha":907,"x_min":68,"x_max":856,"o":"m 467 129 q 582 151 538 129 q 649 215 627 173 q 680 323 672 258 l 855 323 q 808 161 847 233 q 697 45 768 90 q 526 -11 626 0 l 521 -39 q 593 -74 564 -46 q 623 -156 623 -102 q 597 -237 623 -202 q 521 -290 572 -271 q 399 -309 471 -309 l 394 -213 q 460 -198 435 -213 q 485 -153 485 -184 q 462 -112 485 -124 q 383 -96 439 -100 l 403 -9 q 224 66 300 5 q 109 226 149 127 q 68 454 68 326 l 68 532 q 118 780 68 674 q 259 943 168 886 q 474 1001 351 1001 q 672 958 590 1001 q 800 838 754 915 q 856 660 846 761 l 681 660 q 622 809 669 759 q 474 859 575 859 q 303 775 361 859 q 245 534 245 691 l 245 454 q 299 214 245 300 q 467 129 353 129 z "},"D":{"ha":907,"x_min":99,"x_max":838,"o":"m 392 987 q 625 929 524 987 q 782 764 726 871 q 838 517 838 658 l 838 469 q 782 222 838 328 q 623 58 726 116 q 385 0 521 0 l 176 0 l 99 0 l 99 987 l 275 987 l 392 987 m 661 519 q 592 762 661 677 q 392 846 523 846 l 275 846 l 275 141 l 385 141 q 591 227 521 141 q 661 469 661 313 l 661 519 z "},"Ð":{"ha":907,"x_min":-7,"x_max":838,"o":"m 392 987 q 625 929 524 987 q 782 764 726 871 q 838 517 838 658 l 838 469 q 782 222 838 328 q 623 58 726 116 q 385 0 521 0 l 176 0 l 99 0 l 99 441 l -7 441 l -7 558 l 99 558 l 99 987 l 275 987 l 392 987 m 661 519 q 592 762 661 677 q 392 846 523 846 l 275 846 l 275 558 l 450 558 l 450 441 l 275 441 l 275 141 l 385 141 q 591 227 521 141 q 661 469 661 313 l 661 519 z "},"E":{"ha":785,"x_min":99,"x_max":747,"o":"m 747 141 l 747 0 l 228 0 l 99 0 l 99 987 l 275 987 l 743 987 l 743 846 l 275 846 l 275 578 l 678 578 l 678 439 l 275 439 l 275 141 l 747 141 z "},"É":{"ha":785,"x_min":99,"x_max":747,"o":"m 99 0 m 747 141 l 747 0 l 228 0 l 99 0 l 99 987 l 275 987 l 743 987 l 743 846 l 275 846 l 275 578 l 678 578 l 678 439 l 275 439 l 275 141 l 747 141 m 667 1257 l 479 1051 l 343 1051 l 475 1257 l 667 1257 z "},"Ê":{"ha":785,"x_min":99,"x_max":747,"o":"m 99 0 m 747 141 l 747 0 l 228 0 l 99 0 l 99 987 l 275 987 l 743 987 l 743 846 l 275 846 l 275 578 l 678 578 l 678 439 l 275 439 l 275 141 l 747 141 m 663 1061 l 528 1061 l 426 1166 l 324 1061 l 191 1061 l 191 1070 l 376 1257 l 475 1257 l 663 1069 l 663 1061 z "},"Ë":{"ha":785,"x_min":99,"x_max":747,"o":"m 99 0 m 747 141 l 747 0 l 228 0 l 99 0 l 99 987 l 275 987 l 743 987 l 743 846 l 275 846 l 275 578 l 678 578 l 678 439 l 275 439 l 275 141 l 747 141 m 271 1223 q 333 1199 309 1223 q 357 1141 357 1176 q 333 1084 357 1107 q 271 1061 309 1061 q 208 1084 231 1061 q 184 1141 184 1107 q 208 1200 184 1177 q 271 1223 231 1223 m 583 1222 q 646 1199 622 1222 q 670 1141 670 1175 q 646 1083 670 1106 q 583 1060 622 1060 q 520 1083 544 1060 q 496 1141 496 1106 q 520 1199 496 1176 q 583 1222 544 1222 z "},"È":{"ha":785,"x_min":99,"x_max":747,"o":"m 99 0 m 747 141 l 747 0 l 228 0 l 99 0 l 99 987 l 275 987 l 743 987 l 743 846 l 275 846 l 275 578 l 678 578 l 678 439 l 275 439 l 275 141 l 747 141 m 373 1051 l 189 1257 l 380 1257 l 513 1051 l 373 1051 z "},"F":{"ha":763,"x_min":99,"x_max":728,"o":"m 275 846 l 275 557 l 671 557 l 671 416 l 275 416 l 275 0 l 99 0 l 99 987 l 275 987 l 728 987 l 728 846 l 275 846 z "},"G":{"ha":946,"x_min":71,"x_max":859,"o":"m 859 128 q 728 29 816 72 q 494 -14 640 -14 q 273 43 368 -14 q 124 206 178 99 q 71 461 71 313 l 71 526 q 120 782 71 675 q 260 945 169 889 q 479 1001 352 1001 q 746 916 653 1001 q 859 684 840 831 l 686 684 q 482 860 659 860 q 307 774 366 860 q 248 527 248 688 l 248 461 q 278 280 248 355 q 365 166 308 205 q 500 127 421 127 q 619 144 577 127 q 684 185 661 161 l 684 376 l 483 376 l 483 509 l 859 509 l 859 128 z "},"H":{"ha":987,"x_min":99,"x_max":886,"o":"m 886 987 l 886 0 l 711 0 l 711 437 l 275 437 l 275 0 l 99 0 l 99 987 l 275 987 l 275 578 l 711 578 l 711 987 l 886 987 z "},"I":{"ha":394,"x_min":110,"x_max":285,"o":"m 110 0 l 110 987 l 285 987 l 285 0 l 110 0 z "},"Í":{"ha":394,"x_min":110,"x_max":437,"o":"m 110 0 m 110 0 l 110 987 l 285 987 l 285 0 l 110 0 m 437 1257 l 250 1051 l 114 1051 l 246 1257 l 437 1257 z "},"Î":{"ha":394,"x_min":-38,"x_max":434,"o":"m 0 0 m 110 0 l 110 987 l 285 987 l 285 0 l 110 0 m 434 1061 l 299 1061 l 197 1166 l 95 1061 l -38 1061 l -38 1070 l 147 1257 l 246 1257 l 434 1069 l 434 1061 z "},"Ï":{"ha":394,"x_min":-45,"x_max":441,"o":"m 0 0 m 110 0 l 110 987 l 285 987 l 285 0 l 110 0 m 41 1223 q 104 1199 80 1223 q 128 1141 128 1176 q 104 1084 128 1107 q 41 1061 80 1061 q -22 1084 2 1061 q -45 1141 -45 1107 q -22 1200 -45 1177 q 41 1223 2 1223 m 354 1222 q 417 1199 393 1222 q 441 1141 441 1175 q 417 1083 441 1106 q 354 1060 393 1060 q 291 1083 315 1060 q 267 1141 267 1106 q 291 1199 267 1176 q 354 1222 315 1222 z "},"Ì":{"ha":394,"x_min":-40,"x_max":285,"o":"m 0 0 m 110 0 l 110 987 l 285 987 l 285 0 l 110 0 m 144 1051 l -40 1257 l 151 1257 l 283 1051 l 144 1051 z "},"J":{"ha":772,"x_min":31,"x_max":677,"o":"m 677 987 l 677 296 q 636 131 677 201 q 521 23 595 60 q 354 -14 448 -14 q 185 19 258 -14 q 72 118 113 52 q 31 283 31 185 l 206 283 q 245 165 206 202 q 354 127 285 127 q 462 172 421 127 q 503 296 503 216 l 503 987 l 677 987 z "},"K":{"ha":877,"x_min":99,"x_max":886,"o":"m 386 423 l 275 305 l 275 0 l 99 0 l 99 987 l 275 987 l 275 526 l 370 644 l 653 987 l 867 987 l 502 551 l 886 0 l 677 0 l 386 423 z "},"L":{"ha":752,"x_min":99,"x_max":721,"o":"m 721 141 l 721 0 l 228 0 l 99 0 l 99 987 l 275 987 l 275 141 l 721 141 z "},"M":{"ha":1216,"x_min":99,"x_max":1116,"o":"m 1116 0 l 941 0 l 941 319 l 958 758 l 670 0 l 545 0 l 257 757 l 275 319 l 275 0 l 99 0 l 99 987 l 248 987 l 327 987 l 608 236 l 888 987 l 1116 987 l 1116 0 z "},"N":{"ha":986,"x_min":99,"x_max":885,"o":"m 709 0 l 275 694 l 275 0 l 99 0 l 99 987 l 275 987 l 711 292 l 711 987 l 885 987 l 885 0 l 709 0 z "},"Ñ":{"ha":986,"x_min":99,"x_max":885,"o":"m 99 0 m 709 0 l 275 694 l 275 0 l 99 0 l 99 987 l 275 987 l 711 292 l 711 987 l 885 987 l 885 0 l 709 0 m 742 1238 q 722 1148 742 1188 q 668 1085 703 1108 q 590 1063 633 1063 q 538 1071 559 1063 q 488 1095 517 1079 q 448 1116 465 1109 q 407 1123 430 1123 q 363 1104 380 1123 q 346 1054 346 1084 l 243 1059 q 262 1149 243 1108 q 317 1213 282 1190 q 394 1236 351 1236 q 439 1229 419 1236 q 489 1206 460 1221 q 535 1183 516 1191 q 578 1176 555 1176 q 622 1195 604 1176 q 640 1246 640 1215 l 742 1238 z "},"O":{"ha":959,"x_min":68,"x_max":890,"o":"m 890 469 q 839 212 890 321 q 695 45 788 103 q 480 -14 602 -14 q 266 45 359 -14 q 120 212 172 103 q 68 469 68 321 l 68 518 q 120 774 68 665 q 265 942 172 884 q 479 1001 358 1001 q 694 943 601 1001 q 839 775 787 884 q 890 518 890 666 l 890 469 m 714 519 q 653 769 714 683 q 479 856 591 856 q 353 817 406 856 q 272 703 300 779 q 244 519 244 627 l 244 469 q 273 285 244 361 q 354 170 301 209 q 480 131 408 131 q 653 218 593 131 q 714 469 714 304 l 714 519 z "},"Ó":{"ha":959,"x_min":68,"x_max":890,"o":"m 68 0 m 890 469 q 839 212 890 321 q 695 45 788 103 q 480 -14 602 -14 q 266 45 359 -14 q 120 212 172 103 q 68 469 68 321 l 68 518 q 120 774 68 665 q 265 942 172 884 q 479 1001 358 1001 q 694 943 601 1001 q 839 775 787 884 q 890 518 890 666 l 890 469 m 714 519 q 653 769 714 683 q 479 856 591 856 q 353 817 406 856 q 272 703 300 779 q 244 519 244 627 l 244 469 q 273 285 244 361 q 354 170 301 209 q 480 131 408 131 q 653 218 593 131 q 714 469 714 304 l 714 519 m 721 1252 l 533 1046 l 397 1046 l 530 1252 l 721 1252 z "},"Ô":{"ha":959,"x_min":68,"x_max":890,"o":"m 68 0 m 890 469 q 839 212 890 321 q 695 45 788 103 q 480 -14 602 -14 q 266 45 359 -14 q 120 212 172 103 q 68 469 68 321 l 68 518 q 120 774 68 665 q 265 942 172 884 q 479 1001 358 1001 q 694 943 601 1001 q 839 775 787 884 q 890 518 890 666 l 890 469 m 714 519 q 653 769 714 683 q 479 856 591 856 q 353 817 406 856 q 272 703 300 779 q 244 519 244 627 l 244 469 q 273 285 244 361 q 354 170 301 209 q 480 131 408 131 q 653 218 593 131 q 714 469 714 304 l 714 519 m 718 1057 l 583 1057 l 480 1162 l 378 1057 l 245 1057 l 245 1065 l 431 1253 l 530 1253 l 718 1064 l 718 1057 z "},"Ö":{"ha":959,"x_min":68,"x_max":890,"o":"m 68 0 m 890 469 q 839 212 890 321 q 695 45 788 103 q 480 -14 602 -14 q 266 45 359 -14 q 120 212 172 103 q 68 469 68 321 l 68 518 q 120 774 68 665 q 265 942 172 884 q 479 1001 358 1001 q 694 943 601 1001 q 839 775 787 884 q 890 518 890 666 l 890 469 m 714 519 q 653 769 714 683 q 479 856 591 856 q 353 817 406 856 q 272 703 300 779 q 244 519 244 627 l 244 469 q 273 285 244 361 q 354 170 301 209 q 480 131 408 131 q 653 218 593 131 q 714 469 714 304 l 714 519 m 325 1218 q 388 1195 363 1218 q 412 1137 412 1171 q 388 1079 412 1102 q 325 1057 363 1057 q 262 1079 286 1057 q 238 1137 238 1102 q 262 1195 238 1172 q 325 1218 286 1218 m 637 1217 q 700 1194 676 1217 q 724 1136 724 1171 q 700 1078 724 1101 q 637 1055 676 1055 q 574 1078 598 1055 q 551 1136 551 1101 q 574 1194 551 1171 q 637 1217 598 1217 z "},"Ò":{"ha":959,"x_min":68,"x_max":890,"o":"m 68 0 m 890 469 q 839 212 890 321 q 695 45 788 103 q 480 -14 602 -14 q 266 45 359 -14 q 120 212 172 103 q 68 469 68 321 l 68 518 q 120 774 68 665 q 265 942 172 884 q 479 1001 358 1001 q 694 943 601 1001 q 839 775 787 884 q 890 518 890 666 l 890 469 m 714 519 q 653 769 714 683 q 479 856 591 856 q 353 817 406 856 q 272 703 300 779 q 244 519 244 627 l 244 469 q 273 285 244 361 q 354 170 301 209 q 480 131 408 131 q 653 218 593 131 q 714 469 714 304 l 714 519 m 427 1046 l 243 1252 l 434 1252 l 567 1046 l 427 1046 z "},"Ø":{"ha":958,"x_min":71,"x_max":893,"o":"m 784 867 q 865 715 837 803 q 893 518 893 627 l 893 469 q 842 212 893 321 q 698 45 791 103 q 483 -14 605 -14 q 282 37 372 -14 l 221 -64 l 105 -64 l 203 97 q 105 255 140 161 q 71 469 71 350 l 71 518 q 122 774 71 665 q 268 942 174 884 q 481 1001 361 1001 q 710 935 612 1001 l 768 1029 l 882 1029 l 784 867 m 247 469 q 293 246 247 331 l 629 800 q 481 856 571 856 q 356 817 409 856 q 275 703 303 779 q 247 519 247 627 l 247 469 m 717 519 q 688 707 717 630 l 361 167 q 483 131 413 131 q 656 218 595 131 q 717 469 717 304 l 717 519 z "},"Õ":{"ha":959,"x_min":68,"x_max":890,"o":"m 68 0 m 890 469 q 839 212 890 321 q 695 45 788 103 q 480 -14 602 -14 q 266 45 359 -14 q 120 212 172 103 q 68 469 68 321 l 68 518 q 120 774 68 665 q 265 942 172 884 q 479 1001 358 1001 q 694 943 601 1001 q 839 775 787 884 q 890 518 890 666 l 890 469 m 714 519 q 653 769 714 683 q 479 856 591 856 q 353 817 406 856 q 272 703 300 779 q 244 519 244 627 l 244 469 q 273 285 244 361 q 354 170 301 209 q 480 131 408 131 q 653 218 593 131 q 714 469 714 304 l 714 519 m 730 1238 q 710 1148 730 1188 q 655 1085 690 1108 q 578 1063 621 1063 q 526 1071 547 1063 q 476 1095 505 1079 q 435 1116 453 1109 q 395 1123 418 1123 q 351 1104 368 1123 q 334 1054 334 1084 l 231 1059 q 250 1149 231 1108 q 304 1213 270 1190 q 382 1236 339 1236 q 427 1229 407 1236 q 477 1206 448 1221 q 523 1183 504 1191 q 566 1176 543 1176 q 609 1195 591 1176 q 627 1246 627 1215 l 730 1238 z "},"Œ":{"ha":1339,"x_min":68,"x_max":1250,"o":"m 1250 141 l 1250 0 l 730 0 l 660 0 q 554 -11 598 -7 q 465 -14 510 -14 q 258 37 349 -14 q 118 180 168 88 q 68 391 68 272 l 68 597 q 118 807 68 715 q 257 950 168 899 q 463 1002 347 1002 q 660 987 545 1002 l 777 987 l 1245 987 l 1245 846 l 777 846 l 777 578 l 1181 578 l 1181 439 l 777 439 l 777 141 l 1250 141 m 237 391 q 297 190 237 259 q 465 121 358 121 q 602 131 526 121 l 602 856 q 463 866 530 866 q 297 798 357 866 q 237 598 237 729 l 237 391 z "},"P":{"ha":889,"x_min":99,"x_max":839,"o":"m 478 987 q 672 947 590 987 q 796 835 753 907 q 839 672 839 764 q 797 507 839 576 q 673 401 754 438 q 478 365 592 365 l 275 365 l 275 0 l 99 0 l 99 987 l 478 987 m 478 506 q 617 550 572 506 q 663 671 663 594 q 643 758 663 718 q 582 822 623 798 q 478 846 541 846 l 275 846 l 275 506 l 478 506 z "},"Þ":{"ha":833,"x_min":100,"x_max":783,"o":"m 433 799 q 622 761 543 799 q 742 655 701 723 q 783 500 783 588 q 742 346 783 414 q 622 240 701 279 q 433 202 543 202 l 269 202 l 269 0 l 100 0 l 100 987 l 269 987 l 269 799 l 433 799 m 433 338 q 535 360 494 338 q 595 419 576 382 q 614 499 614 456 q 595 581 614 544 q 535 641 576 618 q 433 663 494 663 l 269 663 l 269 338 l 433 338 z "},"Q":{"ha":959,"x_min":64,"x_max":887,"o":"m 773 -172 l 564 -5 q 476 -14 522 -14 q 262 45 355 -14 q 117 212 169 103 q 64 469 64 321 l 64 518 q 116 774 64 665 q 261 942 168 884 q 475 1001 354 1001 q 691 943 597 1001 q 836 775 784 884 q 887 518 887 666 l 887 469 q 843 228 887 332 q 718 62 799 124 l 887 -70 l 773 -172 m 241 469 q 269 285 241 361 q 351 170 298 209 q 476 131 404 131 q 650 218 589 131 q 711 469 711 305 l 711 519 q 649 769 711 683 q 475 856 588 856 q 350 817 402 856 q 269 703 297 779 q 241 519 241 627 l 241 469 z "},"R":{"ha":870,"x_min":99,"x_max":847,"o":"m 847 9 l 847 0 l 659 0 l 463 378 l 275 378 l 275 0 l 99 0 l 99 987 l 449 987 q 713 911 620 987 q 806 690 806 834 q 760 524 806 592 q 627 420 713 456 l 847 9 m 275 519 l 450 519 q 584 564 538 519 q 631 681 631 608 q 586 802 631 759 q 449 846 541 846 l 275 846 l 275 519 z "},"S":{"ha":841,"x_min":50,"x_max":791,"o":"m 406 425 q 165 543 250 473 q 81 727 81 614 q 125 869 81 806 q 250 966 170 931 q 433 1001 330 1001 q 622 961 541 1001 q 746 851 703 920 q 789 699 789 783 l 614 699 q 568 817 614 773 q 431 861 522 861 q 301 824 345 861 q 256 728 256 787 q 307 638 256 675 q 465 570 357 602 q 649 494 577 537 q 755 393 720 452 q 791 257 791 335 q 747 113 791 174 q 624 19 704 52 q 438 -14 545 -14 q 250 22 339 -14 q 105 129 161 58 q 50 300 50 200 l 226 300 q 284 169 226 212 q 438 125 342 125 q 569 161 524 125 q 614 256 614 196 q 597 324 614 296 q 536 375 581 351 q 406 425 492 399 z "},"ẞ":{"ha":922,"x_min":77,"x_max":863,"o":"m 571 576 q 787 486 711 562 q 863 281 863 410 q 819 121 863 187 q 699 20 775 54 q 525 -14 622 -14 q 316 23 410 -14 l 363 155 q 513 121 437 121 q 610 141 569 121 q 672 197 651 161 q 694 279 694 233 q 643 416 694 374 q 491 458 593 458 l 395 458 l 395 573 l 395 576 l 587 804 q 504 849 547 833 q 404 865 462 865 q 282 809 319 865 q 245 648 245 753 l 245 0 l 77 0 l 77 650 q 404 1001 78 1001 q 606 960 514 1001 q 791 841 699 918 l 571 576 z "},"T":{"ha":846,"x_min":31,"x_max":817,"o":"m 817 846 l 509 846 l 509 0 l 334 0 l 334 846 l 31 846 l 31 987 l 509 987 l 817 987 l 817 846 z "},"U":{"ha":907,"x_min":85,"x_max":825,"o":"m 825 329 q 776 142 825 219 q 644 25 728 64 q 454 -14 559 -14 q 263 25 347 -14 q 132 141 179 64 q 85 329 85 218 l 85 987 l 260 987 l 260 329 q 311 177 260 227 q 454 127 362 127 q 598 177 548 127 q 649 329 649 227 l 649 987 l 825 987 l 825 329 z "},"Ú":{"ha":907,"x_min":85,"x_max":825,"o":"m 85 0 m 825 329 q 776 142 825 219 q 644 25 728 64 q 454 -14 559 -14 q 263 25 347 -14 q 132 141 179 64 q 85 329 85 218 l 85 987 l 260 987 l 260 329 q 311 177 260 227 q 454 127 362 127 q 598 177 548 127 q 649 329 649 227 l 649 987 l 825 987 l 825 329 m 694 1252 l 506 1046 l 370 1046 l 503 1252 l 694 1252 z "},"Û":{"ha":907,"x_min":85,"x_max":825,"o":"m 85 0 m 825 329 q 776 142 825 219 q 644 25 728 64 q 454 -14 559 -14 q 263 25 347 -14 q 132 141 179 64 q 85 329 85 218 l 85 987 l 260 987 l 260 329 q 311 177 260 227 q 454 127 362 127 q 598 177 548 127 q 649 329 649 227 l 649 987 l 825 987 l 825 329 m 690 1057 l 555 1057 l 452 1162 l 351 1057 l 218 1057 l 218 1065 l 403 1253 l 502 1253 l 690 1064 l 690 1057 z "},"Ü":{"ha":907,"x_min":85,"x_max":825,"o":"m 85 0 m 825 329 q 776 142 825 219 q 644 25 728 64 q 454 -14 559 -14 q 263 25 347 -14 q 132 141 179 64 q 85 329 85 218 l 85 987 l 260 987 l 260 329 q 311 177 260 227 q 454 127 362 127 q 598 177 548 127 q 649 329 649 227 l 649 987 l 825 987 l 825 329 m 297 1218 q 360 1195 336 1218 q 384 1137 384 1171 q 360 1079 384 1102 q 297 1057 336 1057 q 234 1079 258 1057 q 210 1137 210 1102 q 234 1195 210 1172 q 297 1218 258 1218 m 610 1217 q 672 1194 648 1217 q 696 1136 696 1171 q 672 1078 696 1101 q 610 1055 648 1055 q 547 1078 570 1055 q 523 1136 523 1101 q 547 1194 523 1171 q 610 1217 570 1217 z "},"Ù":{"ha":907,"x_min":85,"x_max":825,"o":"m 85 0 m 825 329 q 776 142 825 219 q 644 25 728 64 q 454 -14 559 -14 q 263 25 347 -14 q 132 141 179 64 q 85 329 85 218 l 85 987 l 260 987 l 260 329 q 311 177 260 227 q 454 127 362 127 q 598 177 548 127 q 649 329 649 227 l 649 987 l 825 987 l 825 329 m 400 1046 l 216 1252 l 407 1252 l 540 1046 l 400 1046 z "},"V":{"ha":900,"x_min":12,"x_max":890,"o":"m 890 987 l 536 0 l 405 0 l 364 0 l 12 987 l 204 987 l 450 219 l 696 987 l 890 987 z "},"W":{"ha":1221,"x_min":32,"x_max":1197,"o":"m 1197 987 l 970 0 l 853 0 l 800 0 l 616 714 l 429 0 l 317 0 l 258 0 l 32 987 l 206 987 l 357 251 l 543 987 l 650 987 l 690 987 l 873 249 l 1022 987 l 1197 987 z "},"X":{"ha":880,"x_min":26,"x_max":855,"o":"m 645 987 l 848 987 l 551 498 l 855 0 l 650 0 l 441 360 l 231 0 l 26 0 l 331 498 l 33 987 l 236 987 l 441 633 l 645 987 z "},"Y":{"ha":848,"x_min":5,"x_max":842,"o":"m 648 987 l 842 987 l 512 363 l 512 0 l 335 0 l 335 363 l 5 987 l 199 987 l 423 523 l 648 987 z "},"Ý":{"ha":848,"x_min":5,"x_max":842,"o":"m 5 0 m 648 987 l 842 987 l 512 363 l 512 0 l 335 0 l 335 363 l 5 987 l 199 987 l 423 523 l 648 987 m 667 1252 l 479 1046 l 343 1046 l 475 1252 l 667 1252 z "},"Z":{"ha":838,"x_min":54,"x_max":791,"o":"m 791 141 l 791 0 l 108 0 l 54 0 l 54 113 l 562 846 l 57 846 l 57 987 l 710 987 l 776 987 l 776 878 l 268 141 l 791 141 z "},"a":{"ha":751,"x_min":60,"x_max":692,"o":"m 665 171 q 692 12 665 71 l 692 0 l 520 0 q 501 68 509 24 q 418 9 467 31 q 309 -14 370 -14 q 180 15 237 -14 q 92 94 123 43 q 60 206 60 144 q 147 386 60 323 q 394 448 234 448 l 496 448 l 496 496 q 464 587 496 554 q 370 620 432 620 q 304 607 332 620 q 260 572 275 594 q 244 522 244 549 l 75 522 q 113 632 75 581 q 220 716 151 684 q 379 747 290 747 q 528 719 463 747 q 628 633 592 690 q 665 494 665 576 l 665 171 m 342 121 q 436 146 395 121 q 496 207 477 172 l 496 344 l 408 344 q 274 312 319 344 q 229 222 229 280 q 258 150 229 178 q 342 121 288 121 z "},"á":{"ha":751,"x_min":60,"x_max":692,"o":"m 60 0 m 665 171 q 692 12 665 71 l 692 0 l 520 0 q 501 68 509 24 q 418 9 467 31 q 309 -14 370 -14 q 180 15 237 -14 q 92 94 123 43 q 60 206 60 144 q 147 386 60 323 q 394 448 234 448 l 496 448 l 496 496 q 464 587 496 554 q 370 620 432 620 q 304 607 332 620 q 260 572 275 594 q 244 522 244 549 l 75 522 q 113 632 75 581 q 220 716 151 684 q 379 747 290 747 q 528 719 463 747 q 628 633 592 690 q 665 494 665 576 l 665 171 m 342 121 q 436 146 395 121 q 496 207 477 172 l 496 344 l 408 344 q 274 312 319 344 q 229 222 229 280 q 258 150 229 178 q 342 121 288 121 m 624 1042 l 436 836 l 300 836 l 433 1042 l 624 1042 z "},"â":{"ha":751,"x_min":60,"x_max":692,"o":"m 60 0 m 665 171 q 692 12 665 71 l 692 0 l 520 0 q 501 68 509 24 q 418 9 467 31 q 309 -14 370 -14 q 180 15 237 -14 q 92 94 123 43 q 60 206 60 144 q 147 386 60 323 q 394 448 234 448 l 496 448 l 496 496 q 464 587 496 554 q 370 620 432 620 q 304 607 332 620 q 260 572 275 594 q 244 522 244 549 l 75 522 q 113 632 75 581 q 220 716 151 684 q 379 747 290 747 q 528 719 463 747 q 628 633 592 690 q 665 494 665 576 l 665 171 m 342 121 q 436 146 395 121 q 496 207 477 172 l 496 344 l 408 344 q 274 312 319 344 q 229 222 229 280 q 258 150 229 178 q 342 121 288 121 m 621 846 l 486 846 l 383 951 l 281 846 l 149 846 l 149 855 l 334 1042 l 433 1042 l 621 854 l 621 846 z "},"ä":{"ha":751,"x_min":60,"x_max":692,"o":"m 60 0 m 665 171 q 692 12 665 71 l 692 0 l 520 0 q 501 68 509 24 q 418 9 467 31 q 309 -14 370 -14 q 180 15 237 -14 q 92 94 123 43 q 60 206 60 144 q 147 386 60 323 q 394 448 234 448 l 496 448 l 496 496 q 464 587 496 554 q 370 620 432 620 q 304 607 332 620 q 260 572 275 594 q 244 522 244 549 l 75 522 q 113 632 75 581 q 220 716 151 684 q 379 747 290 747 q 528 719 463 747 q 628 633 592 690 q 665 494 665 576 l 665 171 m 342 121 q 436 146 395 121 q 496 207 477 172 l 496 344 l 408 344 q 274 312 319 344 q 229 222 229 280 q 258 150 229 178 q 342 121 288 121 m 228 1008 q 291 984 267 1008 q 315 926 315 961 q 291 869 315 892 q 228 846 267 846 q 165 869 189 846 q 141 926 141 892 q 165 985 141 962 q 228 1008 189 1008 m 541 1007 q 603 984 579 1007 q 627 926 627 960 q 603 868 627 891 q 541 845 579 845 q 477 868 501 845 q 454 926 454 891 q 477 984 454 961 q 541 1007 501 1007 z "},"à":{"ha":751,"x_min":60,"x_max":692,"o":"m 60 0 m 665 171 q 692 12 665 71 l 692 0 l 520 0 q 501 68 509 24 q 418 9 467 31 q 309 -14 370 -14 q 180 15 237 -14 q 92 94 123 43 q 60 206 60 144 q 147 386 60 323 q 394 448 234 448 l 496 448 l 496 496 q 464 587 496 554 q 370 620 432 620 q 304 607 332 620 q 260 572 275 594 q 244 522 244 549 l 75 522 q 113 632 75 581 q 220 716 151 684 q 379 747 290 747 q 528 719 463 747 q 628 633 592 690 q 665 494 665 576 l 665 171 m 342 121 q 436 146 395 121 q 496 207 477 172 l 496 344 l 408 344 q 274 312 319 344 q 229 222 229 280 q 258 150 229 178 q 342 121 288 121 m 330 836 l 146 1042 l 337 1042 l 470 836 l 330 836 z "},"å":{"ha":751,"x_min":60,"x_max":692,"o":"m 60 0 m 665 171 q 692 12 665 71 l 692 0 l 520 0 q 501 68 509 24 q 418 9 467 31 q 309 -14 370 -14 q 180 15 237 -14 q 92 94 123 43 q 60 206 60 144 q 147 386 60 323 q 394 448 234 448 l 496 448 l 496 496 q 464 587 496 554 q 370 620 432 620 q 304 607 332 620 q 260 572 275 594 q 244 522 244 549 l 75 522 q 113 632 75 581 q 220 716 151 684 q 379 747 290 747 q 528 719 463 747 q 628 633 592 690 q 665 494 665 576 l 665 171 m 342 121 q 436 146 395 121 q 496 207 477 172 l 496 344 l 408 344 q 274 312 319 344 q 229 222 229 280 q 258 150 229 178 q 342 121 288 121 m 384 1105 q 460 1086 426 1105 q 515 1034 495 1067 q 534 964 534 1002 q 515 893 534 925 q 460 844 495 862 q 384 825 426 825 q 308 844 342 825 q 254 893 273 862 q 234 964 234 925 q 254 1035 234 1002 q 308 1086 273 1067 q 384 1105 342 1105 m 384 889 q 438 911 417 889 q 460 964 460 933 q 438 1018 460 996 q 384 1040 417 1040 q 330 1018 351 1040 q 309 964 309 996 q 330 911 309 933 q 384 889 351 889 z "},"ã":{"ha":751,"x_min":60,"x_max":692,"o":"m 60 0 m 665 171 q 692 12 665 71 l 692 0 l 520 0 q 501 68 509 24 q 418 9 467 31 q 309 -14 370 -14 q 180 15 237 -14 q 92 94 123 43 q 60 206 60 144 q 147 386 60 323 q 394 448 234 448 l 496 448 l 496 496 q 464 587 496 554 q 370 620 432 620 q 304 607 332 620 q 260 572 275 594 q 244 522 244 549 l 75 522 q 113 632 75 581 q 220 716 151 684 q 379 747 290 747 q 528 719 463 747 q 628 633 592 690 q 665 494 665 576 l 665 171 m 342 121 q 436 146 395 121 q 496 207 477 172 l 496 344 l 408 344 q 274 312 319 344 q 229 222 229 280 q 258 150 229 178 q 342 121 288 121 m 633 1027 q 613 938 633 978 q 558 875 593 898 q 481 852 524 852 q 429 861 450 852 q 379 885 408 869 q 338 906 356 899 q 298 913 321 913 q 254 893 271 913 q 237 844 237 874 l 134 849 q 153 939 134 898 q 208 1003 173 979 q 285 1026 242 1026 q 330 1019 310 1026 q 380 996 351 1011 q 426 973 407 981 q 469 966 446 966 q 512 985 494 966 q 530 1036 530 1004 l 633 1027 z "},"æ":{"ha":1173,"x_min":48,"x_max":1133,"o":"m 1133 318 l 663 318 q 719 175 670 229 q 861 121 768 121 q 945 130 908 121 q 1006 151 982 139 q 1067 182 1031 162 l 1116 68 q 1009 12 1078 37 q 850 -14 941 -14 q 697 14 764 -14 q 585 94 630 42 q 473 17 544 47 q 306 -14 403 -14 q 166 14 224 -14 q 78 93 108 41 q 48 212 48 144 q 131 378 48 320 q 370 437 213 437 l 497 437 l 497 483 q 466 577 497 543 q 376 612 434 612 q 303 598 334 612 q 255 561 272 584 q 238 509 238 537 l 70 522 q 108 638 70 587 q 216 719 146 690 q 376 747 286 747 q 508 725 450 747 q 603 660 566 703 q 702 725 645 703 q 827 747 759 748 q 992 707 923 747 q 1097 592 1061 667 q 1133 415 1133 517 l 1133 318 m 966 456 q 932 569 966 526 q 827 612 898 612 q 717 564 758 612 q 666 436 676 516 l 966 436 l 966 456 m 217 210 q 248 140 217 166 q 338 114 278 114 q 423 134 379 114 q 497 181 467 153 l 497 321 l 372 321 q 288 306 323 321 q 235 266 253 291 q 217 210 217 240 z "},"b":{"ha":782,"x_min":83,"x_max":730,"o":"m 443 747 q 600 700 535 747 q 697 569 665 653 q 730 374 730 485 l 730 359 q 697 165 730 250 q 600 34 664 81 q 444 -14 535 -14 q 244 79 317 -14 l 236 0 l 83 0 l 83 1042 l 252 1042 l 252 664 q 443 747 323 747 m 561 374 q 524 545 561 480 q 400 610 487 610 q 252 517 295 610 l 252 218 q 401 124 296 124 q 524 188 486 124 q 561 359 561 251 l 561 374 z "},"c":{"ha":727,"x_min":53,"x_max":688,"o":"m 688 244 q 645 115 686 174 q 536 21 604 56 q 388 -14 469 -14 q 203 35 279 -14 q 90 168 127 84 q 53 355 53 252 l 53 378 q 91 566 53 482 q 203 699 128 650 q 387 747 279 747 q 542 712 475 747 q 648 614 610 677 q 688 470 686 551 l 528 470 q 509 542 526 509 q 459 593 491 574 q 385 612 428 612 q 258 546 295 612 q 222 378 222 480 l 222 355 q 386 122 222 122 q 456 138 425 122 q 507 181 488 153 q 528 244 526 209 l 688 244 z "},"ç":{"ha":727,"x_min":53,"x_max":688,"o":"m 386 122 q 456 138 425 122 q 507 181 488 153 q 528 244 526 209 l 688 244 q 652 125 686 180 q 560 35 618 71 q 432 -11 503 -1 l 427 -39 q 499 -74 470 -46 q 528 -156 528 -102 q 503 -237 528 -202 q 427 -290 477 -271 q 304 -309 376 -309 l 300 -213 q 366 -198 341 -213 q 391 -153 391 -184 q 368 -112 391 -124 q 289 -96 345 -100 l 309 -6 q 168 62 225 10 q 81 189 110 113 q 53 355 53 264 l 53 378 q 91 566 53 482 q 203 699 128 650 q 387 747 279 747 q 542 712 475 747 q 648 614 610 677 q 688 470 686 551 l 528 470 q 509 542 526 509 q 459 593 491 574 q 385 612 428 612 q 258 546 295 612 q 222 378 222 480 l 222 355 q 386 122 222 122 z "},"d":{"ha":785,"x_min":53,"x_max":698,"o":"m 698 1042 l 698 0 l 545 0 l 537 77 q 341 -14 464 -14 q 189 35 254 -14 q 88 168 123 83 q 53 359 53 252 l 53 373 q 88 569 53 484 q 188 701 123 654 q 342 747 254 747 q 529 667 458 747 l 529 1042 l 698 1042 m 384 125 q 529 213 484 125 l 529 524 q 385 610 485 610 q 262 544 302 610 q 222 373 222 478 l 222 359 q 261 190 222 254 q 384 125 301 125 z "},"ð":{"ha":807,"x_min":68,"x_max":740,"o":"m 568 884 q 695 685 650 799 q 740 436 740 571 l 740 378 q 696 175 740 264 q 575 36 652 85 q 402 -14 498 -14 q 229 30 305 -14 q 111 150 153 74 q 68 317 68 226 q 106 497 68 419 q 214 617 144 574 q 374 659 283 659 q 468 644 424 659 q 549 600 513 628 q 431 795 515 712 l 294 704 l 241 778 l 356 854 q 162 937 273 908 l 215 1072 q 496 947 375 1039 l 618 1027 l 670 953 l 568 884 m 571 437 q 570 460 571 453 q 510 510 550 490 q 414 529 470 529 q 283 473 329 529 q 237 317 237 416 q 257 221 237 266 q 315 149 277 176 q 405 122 353 122 q 494 154 456 122 q 551 241 532 186 q 571 368 571 297 l 571 437 z "},"e":{"ha":746,"x_min":56,"x_max":704,"o":"m 704 314 l 226 314 q 255 214 231 258 q 321 146 279 171 q 418 122 363 122 q 602 212 532 122 l 692 124 q 581 26 652 65 q 408 -14 509 -14 q 221 33 301 -14 q 98 160 141 79 q 56 341 56 241 l 56 369 q 99 568 56 482 q 218 701 142 654 q 389 747 294 747 q 564 702 493 747 q 669 575 634 656 q 704 385 704 493 l 704 314 m 537 449 q 498 566 534 520 q 389 612 463 612 q 281 566 322 612 q 229 436 241 519 l 537 436 l 537 449 z "},"é":{"ha":746,"x_min":56,"x_max":704,"o":"m 56 0 m 704 314 l 226 314 q 255 214 231 258 q 321 146 279 171 q 418 122 363 122 q 602 212 532 122 l 692 124 q 581 26 652 65 q 408 -14 509 -14 q 221 33 301 -14 q 98 160 141 79 q 56 341 56 241 l 56 369 q 99 568 56 482 q 218 701 142 654 q 389 747 294 747 q 564 702 493 747 q 669 575 634 656 q 704 385 704 493 l 704 314 m 537 449 q 498 566 534 520 q 389 612 463 612 q 281 566 322 612 q 229 436 241 519 l 537 436 l 537 449 m 616 1042 l 429 836 l 293 836 l 425 1042 l 616 1042 z "},"ê":{"ha":746,"x_min":56,"x_max":704,"o":"m 56 0 m 704 314 l 226 314 q 255 214 231 258 q 321 146 279 171 q 418 122 363 122 q 602 212 532 122 l 692 124 q 581 26 652 65 q 408 -14 509 -14 q 221 33 301 -14 q 98 160 141 79 q 56 341 56 241 l 56 369 q 99 568 56 482 q 218 701 142 654 q 389 747 294 747 q 564 702 493 747 q 669 575 634 656 q 704 385 704 493 l 704 314 m 537 449 q 498 566 534 520 q 389 612 463 612 q 281 566 322 612 q 229 436 241 519 l 537 436 l 537 449 m 613 846 l 478 846 l 376 951 l 274 846 l 141 846 l 141 855 l 326 1042 l 425 1042 l 613 854 l 613 846 z "},"ë":{"ha":746,"x_min":56,"x_max":704,"o":"m 56 0 m 704 314 l 226 314 q 255 214 231 258 q 321 146 279 171 q 418 122 363 122 q 602 212 532 122 l 692 124 q 581 26 652 65 q 408 -14 509 -14 q 221 33 301 -14 q 98 160 141 79 q 56 341 56 241 l 56 369 q 99 568 56 482 q 218 701 142 654 q 389 747 294 747 q 564 702 493 747 q 669 575 634 656 q 704 385 704 493 l 704 314 m 537 449 q 498 566 534 520 q 389 612 463 612 q 281 566 322 612 q 229 436 241 519 l 537 436 l 537 449 m 220 1008 q 283 984 259 1008 q 307 926 307 961 q 283 869 307 892 q 220 846 259 846 q 157 869 181 846 q 134 926 134 892 q 157 985 134 962 q 220 1008 181 1008 m 533 1007 q 596 984 572 1007 q 620 926 620 960 q 596 868 620 891 q 533 845 572 845 q 470 868 494 845 q 446 926 446 891 q 470 984 446 961 q 533 1007 494 1007 z "},"è":{"ha":746,"x_min":56,"x_max":704,"o":"m 56 0 m 704 314 l 226 314 q 255 214 231 258 q 321 146 279 171 q 418 122 363 122 q 602 212 532 122 l 692 124 q 581 26 652 65 q 408 -14 509 -14 q 221 33 301 -14 q 98 160 141 79 q 56 341 56 241 l 56 369 q 99 568 56 482 q 218 701 142 654 q 389 747 294 747 q 564 702 493 747 q 669 575 634 656 q 704 385 704 493 l 704 314 m 537 449 q 498 566 534 520 q 389 612 463 612 q 281 566 322 612 q 229 436 241 519 l 537 436 l 537 449 m 323 836 l 139 1042 l 330 1042 l 463 836 l 323 836 z "},"f":{"ha":493,"x_min":29,"x_max":494,"o":"m 427 918 q 340 888 371 918 q 310 803 310 858 l 310 734 l 458 734 l 458 609 l 310 609 l 310 0 l 141 0 l 141 609 l 29 609 l 29 734 l 141 734 l 141 803 q 172 941 141 884 q 262 1027 203 998 q 400 1056 320 1056 q 494 1044 445 1056 l 490 911 q 427 918 463 918 z "},"g":{"ha":788,"x_min":54,"x_max":705,"o":"m 705 734 l 705 21 q 663 -146 705 -77 q 545 -253 621 -216 q 370 -289 469 -289 q 273 -276 325 -289 q 174 -237 222 -264 q 96 -168 126 -210 l 174 -67 q 260 -134 213 -112 q 360 -156 308 -156 q 490 -111 443 -156 q 536 18 536 -66 l 536 66 q 348 -14 465 -14 q 193 35 260 -14 q 91 168 127 83 q 54 359 54 252 l 54 373 q 90 569 54 484 q 193 701 126 654 q 349 747 260 747 q 545 661 475 747 l 552 734 l 705 734 m 391 125 q 536 208 491 125 l 536 528 q 392 610 491 610 q 298 578 336 610 q 241 494 260 547 q 223 373 223 440 l 223 359 q 265 190 223 255 q 391 125 307 125 z "},"h":{"ha":772,"x_min":81,"x_max":692,"o":"m 452 747 q 692 471 692 747 l 692 0 l 523 0 l 523 473 q 491 578 523 547 q 395 610 460 610 q 309 587 346 610 q 250 525 272 565 l 250 0 l 81 0 l 81 1042 l 250 1042 l 250 654 q 339 723 288 699 q 452 747 391 747 z "},"i":{"ha":357,"x_min":83,"x_max":275,"o":"m 179 1015 q 249 989 223 1015 q 275 924 275 964 q 249 861 275 886 q 179 836 223 836 q 109 860 135 836 q 83 924 83 885 q 109 989 83 964 q 179 1015 135 1015 m 94 0 l 94 734 l 263 734 l 263 0 l 94 0 z "},"ı":{"ha":368,"x_min":97,"x_max":266,"o":"m 97 0 l 97 734 l 266 734 l 266 0 l 97 0 z "},"í":{"ha":368,"x_min":97,"x_max":424,"o":"m 97 0 m 97 0 l 97 734 l 266 734 l 266 0 l 97 0 m 424 1036 l 236 831 l 100 831 l 233 1036 l 424 1036 z "},"î":{"ha":368,"x_min":-52,"x_max":420,"o":"m 0 0 m 97 0 l 97 734 l 266 734 l 266 0 l 97 0 m 420 841 l 286 841 l 183 946 l 81 841 l -52 841 l -52 850 l 134 1037 l 233 1037 l 420 848 l 420 841 z "},"ï":{"ha":368,"x_min":-59,"x_max":427,"o":"m 0 0 m 97 0 l 97 734 l 266 734 l 266 0 l 97 0 m 28 1002 q 91 979 66 1002 q 115 921 115 956 q 91 864 115 886 q 28 841 66 841 q -35 864 -12 841 q -59 921 -59 886 q -35 979 -59 956 q 28 1002 -12 1002 m 340 1002 q 403 978 379 1002 q 427 920 427 955 q 403 863 427 886 q 340 840 379 840 q 277 863 301 840 q 254 920 254 886 q 277 979 254 956 q 340 1002 301 1002 z "},"ì":{"ha":368,"x_min":-54,"x_max":270,"o":"m 0 0 m 97 0 l 97 734 l 266 734 l 266 0 l 97 0 m 130 831 l -54 1036 l 137 1036 l 270 831 l 130 831 z "},"j":{"ha":350,"x_min":-53,"x_max":268,"o":"m 172 1015 q 242 989 216 1015 q 268 924 268 964 q 242 861 268 886 q 172 836 216 836 q 102 860 128 836 q 77 924 77 885 q 102 989 77 964 q 172 1015 128 1015 m 260 -62 q 202 -236 260 -176 q 36 -296 145 -296 q -53 -285 -11 -296 l -53 -152 q 7 -157 -22 -157 q 70 -135 49 -157 q 91 -62 91 -112 l 91 734 l 260 734 l 260 -62 z "},"k":{"ha":727,"x_min":84,"x_max":735,"o":"m 326 313 l 252 238 l 252 0 l 84 0 l 84 1042 l 252 1042 l 252 444 l 302 507 l 503 734 l 707 734 l 435 429 l 735 0 l 540 0 l 326 313 z "},"l":{"ha":357,"x_min":94,"x_max":263,"o":"m 94 0 l 94 1042 l 263 1042 l 263 0 l 94 0 z "},"m":{"ha":1208,"x_min":83,"x_max":1124,"o":"m 884 747 q 1063 682 1001 747 q 1124 475 1124 616 l 1124 0 l 956 0 l 956 475 q 923 580 956 551 q 827 610 891 610 q 738 581 774 610 q 688 505 703 553 l 688 489 l 688 0 l 519 0 l 519 473 q 487 578 519 547 q 390 610 454 610 q 252 530 293 610 l 252 0 l 83 0 l 83 734 l 242 734 l 248 656 q 338 724 285 701 q 459 747 391 747 q 580 720 528 747 q 659 635 631 692 q 753 718 696 688 q 884 747 810 747 z "},"n":{"ha":773,"x_min":81,"x_max":692,"o":"m 458 747 q 631 683 570 747 q 692 473 692 618 l 692 0 l 523 0 l 523 475 q 491 579 523 548 q 395 610 460 610 q 310 587 347 610 q 250 522 273 564 l 250 0 l 81 0 l 81 734 l 240 734 l 245 649 q 339 722 285 696 q 458 747 393 747 z "},"ñ":{"ha":773,"x_min":81,"x_max":692,"o":"m 81 0 m 458 747 q 631 683 570 747 q 692 473 692 618 l 692 0 l 523 0 l 523 475 q 491 579 523 548 q 395 610 460 610 q 310 587 347 610 q 250 522 273 564 l 250 0 l 81 0 l 81 734 l 240 734 l 245 649 q 339 722 285 696 q 458 747 393 747 m 639 1027 q 619 938 639 978 q 565 875 600 898 q 487 852 530 852 q 435 861 456 852 q 385 885 414 869 q 345 906 362 899 q 304 913 327 913 q 260 893 277 913 q 243 844 243 874 l 140 849 q 159 939 140 898 q 214 1003 179 979 q 291 1026 248 1026 q 336 1019 316 1026 q 386 996 357 1011 q 432 973 413 981 q 475 966 452 966 q 518 985 500 966 q 536 1036 536 1004 l 639 1027 z "},"o":{"ha":790,"x_min":53,"x_max":737,"o":"m 53 374 q 94 566 53 481 q 212 699 135 650 q 394 747 290 747 q 577 699 500 747 q 696 566 655 650 q 737 374 737 481 l 737 359 q 696 168 737 252 q 578 35 655 83 q 395 -14 500 -14 q 213 35 290 -14 q 94 168 135 83 q 53 359 53 252 l 53 374 m 222 359 q 265 189 222 255 q 395 122 309 122 q 492 154 453 122 q 550 239 531 185 q 568 359 568 292 l 568 374 q 550 494 568 440 q 492 580 531 548 q 394 612 452 612 q 298 580 336 612 q 240 494 259 548 q 222 374 222 440 l 222 359 z "},"ó":{"ha":790,"x_min":53,"x_max":737,"o":"m 53 0 m 53 374 q 94 566 53 481 q 212 699 135 650 q 394 747 290 747 q 577 699 500 747 q 696 566 655 650 q 737 374 737 481 l 737 359 q 696 168 737 252 q 578 35 655 83 q 395 -14 500 -14 q 213 35 290 -14 q 94 168 135 83 q 53 359 53 252 l 53 374 m 222 359 q 265 189 222 255 q 395 122 309 122 q 492 154 453 122 q 550 239 531 185 q 568 359 568 292 l 568 374 q 550 494 568 440 q 492 580 531 548 q 394 612 452 612 q 298 580 336 612 q 240 494 259 548 q 222 374 222 440 l 222 359 m 631 1042 l 444 836 l 308 836 l 440 1042 l 631 1042 z "},"ô":{"ha":790,"x_min":53,"x_max":737,"o":"m 53 0 m 53 374 q 94 566 53 481 q 212 699 135 650 q 394 747 290 747 q 577 699 500 747 q 696 566 655 650 q 737 374 737 481 l 737 359 q 696 168 737 252 q 578 35 655 83 q 395 -14 500 -14 q 213 35 290 -14 q 94 168 135 83 q 53 359 53 252 l 53 374 m 222 359 q 265 189 222 255 q 395 122 309 122 q 492 154 453 122 q 550 239 531 185 q 568 359 568 292 l 568 374 q 550 494 568 440 q 492 580 531 548 q 394 612 452 612 q 298 580 336 612 q 240 494 259 548 q 222 374 222 440 l 222 359 m 628 846 l 493 846 l 391 951 l 289 846 l 156 846 l 156 855 l 341 1042 l 440 1042 l 628 854 l 628 846 z "},"ö":{"ha":790,"x_min":53,"x_max":737,"o":"m 53 0 m 53 374 q 94 566 53 481 q 212 699 135 650 q 394 747 290 747 q 577 699 500 747 q 696 566 655 650 q 737 374 737 481 l 737 359 q 696 168 737 252 q 578 35 655 83 q 395 -14 500 -14 q 213 35 290 -14 q 94 168 135 83 q 53 359 53 252 l 53 374 m 222 359 q 265 189 222 255 q 395 122 309 122 q 492 154 453 122 q 550 239 531 185 q 568 359 568 292 l 568 374 q 550 494 568 440 q 492 580 531 548 q 394 612 452 612 q 298 580 336 612 q 240 494 259 548 q 222 374 222 440 l 222 359 m 235 1008 q 298 984 274 1008 q 322 926 322 961 q 298 869 322 892 q 235 846 274 846 q 172 869 196 846 q 149 926 149 892 q 172 985 149 962 q 235 1008 196 1008 m 548 1007 q 611 984 587 1007 q 635 926 635 960 q 611 868 635 891 q 548 845 587 845 q 485 868 509 845 q 461 926 461 891 q 485 984 461 961 q 548 1007 509 1007 z "},"ò":{"ha":790,"x_min":53,"x_max":737,"o":"m 53 0 m 53 374 q 94 566 53 481 q 212 699 135 650 q 394 747 290 747 q 577 699 500 747 q 696 566 655 650 q 737 374 737 481 l 737 359 q 696 168 737 252 q 578 35 655 83 q 395 -14 500 -14 q 213 35 290 -14 q 94 168 135 83 q 53 359 53 252 l 53 374 m 222 359 q 265 189 222 255 q 395 122 309 122 q 492 154 453 122 q 550 239 531 185 q 568 359 568 292 l 568 374 q 550 494 568 440 q 492 580 531 548 q 394 612 452 612 q 298 580 336 612 q 240 494 259 548 q 222 374 222 440 l 222 359 m 338 836 l 154 1042 l 345 1042 l 477 836 l 338 836 z "},"ø":{"ha":787,"x_min":53,"x_max":737,"o":"m 604 681 q 703 552 668 632 q 737 374 737 472 l 737 359 q 696 168 737 252 q 578 35 655 83 q 395 -14 500 -14 q 272 6 329 -14 l 223 -94 l 123 -94 l 193 47 q 89 178 125 96 q 53 359 53 259 l 53 374 q 94 566 53 481 q 212 699 135 650 q 394 747 290 747 q 525 724 465 747 l 573 822 l 673 822 l 604 681 m 222 359 q 263 191 222 254 l 463 597 q 394 612 433 612 q 298 580 336 612 q 240 494 259 548 q 222 374 222 440 l 222 359 m 568 374 q 559 461 568 420 q 531 534 549 503 l 334 133 q 395 122 363 122 q 492 154 453 122 q 550 239 531 185 q 568 359 568 292 l 568 374 z "},"õ":{"ha":790,"x_min":53,"x_max":737,"o":"m 53 0 m 53 374 q 94 566 53 481 q 212 699 135 650 q 394 747 290 747 q 577 699 500 747 q 696 566 655 650 q 737 374 737 481 l 737 359 q 696 168 737 252 q 578 35 655 83 q 395 -14 500 -14 q 213 35 290 -14 q 94 168 135 83 q 53 359 53 252 l 53 374 m 222 359 q 265 189 222 255 q 395 122 309 122 q 492 154 453 122 q 550 239 531 185 q 568 359 568 292 l 568 374 q 550 494 568 440 q 492 580 531 548 q 394 612 452 612 q 298 580 336 612 q 240 494 259 548 q 222 374 222 440 l 222 359 m 640 1027 q 621 938 640 978 q 566 875 601 898 q 488 852 531 852 q 436 861 457 852 q 387 885 415 869 q 346 906 363 899 q 305 913 328 913 q 261 893 279 913 q 244 844 244 874 l 141 849 q 161 939 141 898 q 215 1003 180 979 q 292 1026 250 1026 q 338 1019 317 1026 q 387 996 358 1011 q 434 973 414 981 q 476 966 453 966 q 520 985 502 966 q 538 1036 538 1004 l 640 1027 z "},"œ":{"ha":1255,"x_min":61,"x_max":1206,"o":"m 1206 318 l 745 318 q 800 176 753 231 q 929 121 847 121 q 1042 137 996 121 q 1134 183 1089 153 l 1187 73 q 1077 11 1145 36 q 918 -14 1008 -14 q 768 16 835 -14 q 656 102 702 47 q 547 16 612 46 q 399 -14 482 -14 q 218 34 294 -14 q 101 168 141 83 q 61 359 61 252 l 61 374 q 101 566 61 481 q 217 699 141 650 q 398 747 294 747 q 547 717 481 747 q 657 631 613 686 q 763 717 701 686 q 899 747 825 748 q 1067 706 998 747 q 1171 591 1136 665 q 1206 416 1206 516 l 1206 318 m 568 374 q 526 545 568 478 q 398 612 484 612 q 272 545 313 612 q 230 374 230 478 l 230 359 q 271 188 230 254 q 399 121 313 121 q 527 188 485 121 q 568 359 568 254 l 568 374 m 1039 457 q 1004 569 1039 526 q 899 612 969 612 q 800 564 839 612 q 749 440 761 517 l 1039 440 l 1039 457 z "},"p":{"ha":782,"x_min":83,"x_max":729,"o":"m 441 747 q 598 701 533 747 q 696 571 663 655 q 729 374 729 487 l 729 360 q 695 168 729 252 q 597 35 662 83 q 444 -14 533 -14 q 252 66 326 -14 l 252 -282 l 83 -282 l 83 734 l 239 734 l 245 660 q 441 747 319 747 m 560 374 q 519 544 560 479 q 395 610 478 610 q 252 528 296 610 l 252 205 q 396 122 296 122 q 519 189 479 122 q 560 360 560 255 l 560 374 z "},"þ":{"ha":795,"x_min":87,"x_max":732,"o":"m 446 747 q 602 701 537 747 q 699 571 666 655 q 732 374 732 486 l 732 360 q 699 168 732 252 q 601 35 665 83 q 448 -14 537 -14 q 256 65 329 -14 l 256 -282 l 87 -282 l 87 1042 l 256 1042 l 256 668 q 446 747 328 747 m 564 374 q 523 544 564 479 q 399 610 482 610 q 256 528 299 610 l 256 205 q 400 122 300 122 q 523 189 483 122 q 564 360 564 255 l 564 374 z "},"q":{"ha":789,"x_min":53,"x_max":698,"o":"m 698 734 l 698 -282 l 529 -282 l 529 63 q 342 -14 456 -14 q 188 35 253 -14 q 87 168 122 83 q 53 359 53 252 l 53 374 q 87 570 53 486 q 187 701 121 654 q 344 747 253 747 q 538 661 465 747 l 547 734 l 698 734 m 386 122 q 529 204 483 122 l 529 533 q 472 591 507 570 q 387 612 437 612 q 263 545 304 612 q 222 374 222 479 l 222 359 q 262 189 222 255 q 386 122 303 122 z "},"r":{"ha":491,"x_min":83,"x_max":473,"o":"m 414 747 q 446 745 428 747 q 473 739 464 742 l 471 579 q 404 585 437 585 q 252 500 291 585 l 252 0 l 83 0 l 83 734 l 244 734 l 249 651 q 318 722 277 697 q 414 747 359 747 z "},"s":{"ha":717,"x_min":50,"x_max":659,"o":"m 337 307 q 142 385 211 333 q 74 524 74 436 q 109 636 74 585 q 209 717 144 687 q 358 747 273 747 q 515 717 448 747 q 618 633 582 686 q 654 513 654 580 l 485 513 q 470 567 485 543 q 427 607 456 592 q 358 622 399 622 q 269 596 300 622 q 238 532 238 570 q 251 490 238 507 q 297 460 264 473 q 387 434 330 446 q 536 388 477 415 q 627 317 595 361 q 659 209 659 274 q 622 94 659 144 q 517 15 585 43 q 360 -14 449 -14 q 193 22 264 -14 q 86 113 123 57 q 50 232 50 170 l 213 232 q 259 141 216 170 q 363 112 302 112 q 459 136 425 112 q 493 200 493 160 q 481 244 493 226 q 434 278 469 262 q 337 307 400 294 z "},"ß":{"ha":854,"x_min":92,"x_max":804,"o":"m 92 0 l 92 749 q 129 918 92 849 q 233 1022 165 987 q 391 1057 300 1057 q 533 1029 471 1057 q 630 948 595 1002 q 665 814 665 893 q 659 751 665 779 q 644 706 652 724 q 621 663 635 688 q 594 611 603 633 q 586 559 586 589 q 597 518 586 538 q 627 480 609 498 q 675 437 644 463 q 742 375 716 402 q 786 311 768 348 q 804 230 804 275 q 729 49 804 112 q 520 -14 654 -14 q 409 -1 467 -14 q 325 29 352 12 l 359 165 q 427 135 386 149 q 511 122 468 122 q 605 150 574 122 q 635 224 635 177 q 624 270 635 249 q 593 309 612 292 q 544 352 575 326 q 478 411 503 386 q 435 473 453 437 q 418 555 418 509 q 429 622 418 595 q 461 686 439 649 q 492 744 481 719 q 502 803 502 769 q 470 890 502 859 q 387 921 438 921 q 260 748 260 921 l 260 0 l 92 0 z "},"ſ":{"ha":357,"x_min":92,"x_max":450,"o":"m 92 803 q 159 990 92 924 q 346 1056 227 1056 q 450 1042 389 1056 l 433 913 q 370 920 401 920 q 289 889 317 920 q 261 803 261 859 l 261 0 l 92 0 l 92 803 z "},"t":{"ha":463,"x_min":5,"x_max":427,"o":"m 370 126 q 427 133 397 126 l 427 3 q 317 -14 378 -14 q 176 36 228 -14 q 125 194 125 85 l 125 609 l 5 609 l 5 734 l 125 734 l 125 913 l 294 913 l 294 734 l 422 734 l 422 609 l 294 609 l 294 205 q 313 143 294 159 q 370 126 332 126 z "},"u":{"ha":772,"x_min":79,"x_max":691,"o":"m 691 734 l 691 0 l 532 0 l 528 73 q 322 -14 456 -14 q 144 53 208 -14 q 79 260 79 119 l 79 734 l 248 734 l 248 258 q 280 156 248 186 q 363 125 311 125 q 522 208 480 125 l 522 734 l 691 734 z "},"ú":{"ha":772,"x_min":79,"x_max":691,"o":"m 79 0 m 691 734 l 691 0 l 532 0 l 528 73 q 322 -14 456 -14 q 144 53 208 -14 q 79 260 79 119 l 79 734 l 248 734 l 248 258 q 280 156 248 186 q 363 125 311 125 q 522 208 480 125 l 522 734 l 691 734 m 627 1042 l 439 836 l 304 836 l 436 1042 l 627 1042 z "},"û":{"ha":772,"x_min":79,"x_max":691,"o":"m 79 0 m 691 734 l 691 0 l 532 0 l 528 73 q 322 -14 456 -14 q 144 53 208 -14 q 79 260 79 119 l 79 734 l 248 734 l 248 258 q 280 156 248 186 q 363 125 311 125 q 522 208 480 125 l 522 734 l 691 734 m 623 846 l 488 846 l 386 951 l 284 846 l 151 846 l 151 855 l 336 1042 l 435 1042 l 623 854 l 623 846 z "},"ü":{"ha":772,"x_min":79,"x_max":691,"o":"m 79 0 m 691 734 l 691 0 l 532 0 l 528 73 q 322 -14 456 -14 q 144 53 208 -14 q 79 260 79 119 l 79 734 l 248 734 l 248 258 q 280 156 248 186 q 363 125 311 125 q 522 208 480 125 l 522 734 l 691 734 m 231 1008 q 293 984 269 1008 q 317 926 317 961 q 293 869 317 892 q 231 846 269 846 q 168 869 191 846 q 144 926 144 892 q 168 985 144 962 q 231 1008 191 1008 m 543 1007 q 606 984 582 1007 q 630 926 630 960 q 606 868 630 891 q 543 845 582 845 q 480 868 504 845 q 456 926 456 891 q 480 984 456 961 q 543 1007 504 1007 z "},"ù":{"ha":772,"x_min":79,"x_max":691,"o":"m 79 0 m 691 734 l 691 0 l 532 0 l 528 73 q 322 -14 456 -14 q 144 53 208 -14 q 79 260 79 119 l 79 734 l 248 734 l 248 258 q 280 156 248 186 q 363 125 311 125 q 522 208 480 125 l 522 734 l 691 734 m 334 836 l 150 1042 l 340 1042 l 473 836 l 334 836 z "},"v":{"ha":690,"x_min":15,"x_max":672,"o":"m 672 734 l 418 0 l 310 0 l 270 0 l 15 734 l 190 734 l 345 214 l 497 734 l 672 734 z "},"w":{"ha":1031,"x_min":22,"x_max":1006,"o":"m 1006 734 l 807 0 l 700 0 l 668 0 l 513 498 l 360 0 l 264 0 l 221 0 l 22 734 l 186 734 l 302 238 l 451 734 l 559 734 l 577 734 l 727 232 l 842 734 l 1006 734 z "},"x":{"ha":700,"x_min":20,"x_max":681,"o":"m 487 734 l 673 734 l 451 373 l 681 0 l 495 0 l 351 248 l 207 0 l 20 0 l 250 373 l 28 734 l 214 734 l 349 496 l 487 734 z "},"y":{"ha":679,"x_min":7,"x_max":670,"o":"m 670 734 l 378 -111 q 298 -242 350 -187 q 150 -296 246 -296 q 69 -284 117 -296 l 69 -155 l 100 -156 q 192 -135 161 -156 q 242 -60 224 -113 l 265 3 l 7 734 l 190 734 l 342 241 l 490 734 l 670 734 z "},"ý":{"ha":679,"x_min":7,"x_max":670,"o":"m 7 0 m 670 734 l 378 -111 q 298 -242 350 -187 q 150 -296 246 -296 q 69 -284 117 -296 l 69 -155 l 100 -156 q 192 -135 161 -156 q 242 -60 224 -113 l 265 3 l 7 734 l 190 734 l 342 241 l 490 734 l 670 734 m 590 1042 l 402 836 l 267 836 l 399 1042 l 590 1042 z "},"ÿ":{"ha":679,"x_min":7,"x_max":670,"o":"m 7 0 m 670 734 l 378 -111 q 298 -242 350 -187 q 150 -296 246 -296 q 69 -284 117 -296 l 69 -155 l 100 -156 q 192 -135 161 -156 q 242 -60 224 -113 l 265 3 l 7 734 l 190 734 l 342 241 l 490 734 l 670 734 m 193 1008 q 256 984 232 1008 q 280 926 280 961 q 256 869 280 892 q 193 846 232 846 q 130 869 154 846 q 106 926 106 892 q 130 985 106 962 q 193 1008 154 1008 m 506 1007 q 569 984 545 1007 q 593 926 593 960 q 569 868 593 891 q 506 845 545 845 q 443 868 467 845 q 419 926 419 891 q 443 984 419 961 q 506 1007 467 1007 z "},"z":{"ha":700,"x_min":55,"x_max":652,"o":"m 652 136 l 652 0 l 108 0 l 55 0 l 55 110 l 424 597 l 62 597 l 62 734 l 573 734 l 638 734 l 638 628 l 267 136 l 652 136 z "},"ﬁ":{"ha":813,"x_min":16,"x_max":717,"o":"m 297 734 l 441 734 l 441 609 l 297 609 l 297 0 l 128 0 l 128 609 l 16 609 l 16 734 l 128 734 l 128 779 q 207 984 128 912 q 428 1056 286 1056 q 526 1046 477 1056 q 637 1015 574 1036 l 611 876 q 528 899 568 890 q 439 908 487 908 q 332 876 366 908 q 297 779 297 844 l 297 734 m 717 734 l 717 0 l 548 0 l 548 734 l 717 734 z "},"ª":{"ha":619,"x_min":96,"x_max":532,"o":"m 412 479 q 401 525 405 502 q 344 485 378 500 q 264 469 310 469 q 140 511 184 469 q 96 624 96 553 q 154 740 96 700 q 327 781 212 781 l 396 781 l 396 815 q 376 879 396 857 q 317 901 357 901 q 249 884 273 901 q 224 834 224 867 l 106 844 q 133 925 106 889 q 207 981 159 961 q 317 1002 255 1002 q 462 954 409 1002 q 515 814 515 905 l 515 602 q 532 479 515 532 l 412 479 m 214 627 q 234 583 214 598 q 294 567 254 567 q 349 579 320 567 q 396 608 377 591 l 396 701 l 328 701 q 243 680 272 701 q 214 627 214 659 z "},"º":{"ha":635,"x_min":81,"x_max":551,"o":"m 81 761 q 110 885 81 831 q 192 971 138 940 q 315 1002 245 1002 q 440 971 387 1002 q 522 886 494 941 q 551 761 551 831 l 551 709 q 522 584 551 639 q 441 499 494 530 q 317 469 388 469 q 192 499 245 469 q 110 584 138 530 q 81 709 81 639 l 81 761 m 199 709 q 229 607 199 646 q 317 568 259 568 q 402 607 373 568 q 432 709 432 646 l 432 761 q 402 862 432 823 q 315 901 372 901 q 229 862 259 901 q 199 761 199 823 l 199 709 z "},"α":{"ha":785,"x_min":58,"x_max":777,"o":"m 777 6 q 737 -10 757 -6 q 691 -14 718 -14 q 543 97 580 -14 q 343 -14 473 -14 q 189 31 254 -14 q 91 158 125 77 q 58 344 58 239 l 58 358 q 91 561 58 473 q 189 698 125 649 q 345 747 254 747 q 536 645 467 747 l 549 734 l 694 734 l 694 222 q 707 149 694 170 q 743 128 720 128 q 761 132 751 128 l 777 6 m 386 121 q 525 210 480 121 l 525 520 q 387 612 479 612 q 266 541 304 612 q 227 358 227 471 l 227 344 q 265 182 227 243 q 386 121 303 121 z "},"װ":{"ha":860,"x_min":60,"x_max":743,"o":"m 60 0 m 571 671 l 490 671 l 490 806 l 743 806 l 743 0 l 571 0 l 571 671 m 141 671 l 60 671 l 60 806 l 313 806 l 313 0 l 141 0 l 141 671 z "},"ױ":{"ha":880,"x_min":60,"x_max":774,"o":"m 60 0 m 602 671 l 466 671 l 466 806 l 774 806 l 774 351 l 602 351 l 602 671 m 141 671 l 60 671 l 60 806 l 313 806 l 313 0 l 141 0 l 141 671 z "},"ײ":{"ha":900,"x_min":36,"x_max":794,"o":"m 36 351 m 622 671 l 486 671 l 486 806 l 794 806 l 794 351 l 622 351 l 622 671 m 172 671 l 36 671 l 36 806 l 345 806 l 345 351 l 172 351 l 172 671 z "},"ﭏ":{"ha":836,"x_min":50,"x_max":779,"o":"m 525 340 l 763 0 l 572 0 l 50 743 l 50 1005 l 222 1005 l 222 772 l 420 490 l 586 806 l 779 806 l 525 340 z "},"א":{"ha":915,"x_min":88,"x_max":857,"o":"m 606 346 l 851 0 l 659 0 l 331 464 q 297 416 308 444 q 286 349 286 387 l 286 0 l 119 0 l 119 279 q 154 454 119 387 q 264 557 189 522 l 88 806 l 281 806 l 500 495 l 664 806 l 857 806 l 606 346 z "},"ב":{"ha":745,"x_min":38,"x_max":718,"o":"m 718 130 l 718 0 l 38 0 l 38 136 l 450 136 l 450 514 q 411 633 450 595 q 289 671 372 671 l 82 671 l 82 806 l 300 806 q 539 729 456 806 q 622 507 622 652 l 622 142 l 718 130 z "},"ג":{"ha":577,"x_min":11,"x_max":519,"o":"m 54 -7 q 11 -4 28 -7 l 11 152 q 64 148 34 148 q 204 194 149 150 q 282 315 260 239 l 282 671 l 102 671 l 102 806 l 451 806 l 451 395 q 464 268 451 331 l 519 0 l 359 0 l 312 214 l 308 214 q 263 103 298 153 q 173 22 227 52 q 54 -7 118 -7 z "},"ד":{"ha":757,"x_min":41,"x_max":712,"o":"m 712 806 l 712 671 l 574 671 l 574 0 l 401 0 l 401 671 l 41 671 l 41 806 l 712 806 z "},"ה":{"ha":842,"x_min":98,"x_max":746,"o":"m 574 514 q 535 633 574 595 q 412 671 496 671 l 99 671 l 99 806 l 424 806 q 663 729 580 806 q 746 507 746 652 l 746 0 l 574 0 l 574 514 m 98 276 q 110 380 98 343 q 140 448 121 418 l 279 448 q 264 292 264 389 l 264 0 l 98 0 l 98 276 z "},"ו":{"ha":430,"x_min":60,"x_max":313,"o":"m 141 671 l 60 671 l 60 806 l 313 806 l 313 0 l 141 0 l 141 671 z "},"ז":{"ha":517,"x_min":48,"x_max":470,"o":"m 100 665 l 48 676 l 48 806 l 470 806 l 469 671 l 269 671 l 375 0 l 198 0 l 100 665 z "},"ח":{"ha":863,"x_min":117,"x_max":766,"o":"m 117 806 l 446 806 q 766 500 764 806 l 766 0 l 595 0 l 594 512 q 558 633 594 594 q 447 671 523 671 l 289 671 l 289 0 l 117 0 l 117 806 z "},"ט":{"ha":873,"x_min":117,"x_max":791,"o":"m 454 -16 q 278 26 355 -16 q 159 145 201 68 q 117 321 117 221 l 117 806 l 289 806 l 289 304 q 310 207 289 249 q 368 141 330 164 q 454 118 405 118 q 541 141 503 118 q 599 207 578 164 q 620 304 620 249 l 620 553 q 594 643 620 612 q 519 674 568 674 q 434 656 481 674 l 414 768 q 493 802 449 789 q 575 814 536 814 q 690 785 642 814 q 765 699 739 755 q 791 568 791 644 l 791 321 q 749 145 791 221 q 631 26 707 68 q 454 -16 555 -16 z "},"י":{"ha":450,"x_min":36,"x_max":345,"o":"m 172 671 l 36 671 l 36 806 l 345 806 l 345 351 l 172 351 l 172 671 z "},"ך":{"ha":708,"x_min":45,"x_max":591,"o":"m 422 671 l 45 671 l 45 806 l 591 806 l 591 -282 l 422 -282 l 422 671 z "},"כ":{"ha":758,"x_min":48,"x_max":642,"o":"m 281 -12 q 48 21 177 -12 l 75 148 q 261 122 180 122 q 417 172 366 123 q 469 314 469 220 l 469 671 l 79 671 l 79 806 l 642 806 l 642 347 q 546 76 642 165 q 281 -12 451 -12 z "},"ל":{"ha":735,"x_min":50,"x_max":687,"o":"m 687 697 l 407 0 l 224 0 l 501 671 l 50 671 l 50 1042 l 222 1042 l 222 806 l 687 806 l 687 697 z "},"ם":{"ha":901,"x_min":117,"x_max":784,"o":"m 117 806 l 784 806 l 784 0 l 117 0 l 117 806 m 612 136 l 612 671 l 289 671 l 289 136 l 612 136 z "},"מ":{"ha":904,"x_min":80,"x_max":808,"o":"m 167 481 q 196 586 174 536 q 250 663 219 635 q 261 671 254 667 l 260 674 q 191 658 232 669 q 118 635 149 647 l 80 762 q 260 807 159 790 q 450 825 362 825 q 716 734 625 825 q 808 468 807 644 l 808 0 l 465 0 l 465 135 l 635 135 l 635 490 q 595 633 635 583 q 481 683 555 683 q 382 635 420 683 q 334 502 344 588 l 281 0 l 111 0 l 167 481 z "},"ן":{"ha":423,"x_min":54,"x_max":307,"o":"m 137 671 l 54 671 l 54 806 l 307 806 l 307 -282 l 137 -282 l 137 671 z "},"נ":{"ha":531,"x_min":41,"x_max":414,"o":"m 184 -14 q 114 -9 147 -14 q 41 3 81 -5 l 43 134 q 142 127 89 127 q 218 155 193 127 q 243 243 243 184 l 243 671 l 94 671 l 94 806 l 414 806 l 414 230 q 354 50 414 113 q 184 -14 294 -14 z "},"ס":{"ha":895,"x_min":54,"x_max":810,"o":"m 458 -16 q 275 31 355 -16 q 152 163 196 78 q 106 359 107 248 l 106 423 q 118 515 105 468 q 153 603 131 563 q 201 664 175 642 q 210 671 205 668 l 209 674 q 153 662 188 671 q 87 645 117 654 l 54 772 q 239 810 135 795 q 433 825 344 825 q 637 781 552 825 q 766 651 722 736 q 810 446 810 566 l 810 359 q 766 163 810 248 q 642 31 722 78 q 458 -16 562 -16 m 458 127 q 552 156 511 127 q 616 237 593 185 q 639 358 639 290 l 639 444 q 590 620 639 557 q 454 683 541 683 q 326 617 372 683 q 277 434 279 552 l 277 358 q 300 237 277 290 q 363 156 323 185 q 458 127 404 127 z "},"ע":{"ha":839,"x_min":41,"x_max":722,"o":"m 722 806 l 722 334 q 675 142 722 221 q 543 22 628 63 q 345 -18 458 -18 q 41 39 195 -18 l 79 166 q 278 115 189 124 q 235 171 254 139 q 209 239 217 203 l 80 806 l 253 806 l 377 225 q 412 124 391 163 q 514 196 478 145 q 551 327 551 248 l 551 806 l 722 806 z "},"ף":{"ha":850,"x_min":92,"x_max":734,"o":"m 734 -282 l 564 -282 l 564 671 l 332 671 q 304 584 314 633 q 294 486 294 534 l 294 405 q 381 396 323 396 l 381 268 q 321 265 353 265 q 215 277 262 265 q 127 312 168 288 l 126 433 q 141 565 125 500 q 184 671 157 630 l 92 671 l 92 806 l 734 806 l 734 -282 z "},"פ":{"ha":899,"x_min":92,"x_max":783,"o":"m 412 -16 q 269 -3 346 -16 q 125 33 192 9 l 157 159 q 284 132 220 141 q 397 122 349 122 q 556 172 501 123 q 610 314 610 220 l 610 671 l 332 671 q 304 586 314 633 q 294 492 294 539 l 294 441 q 381 433 323 433 l 381 304 q 321 302 353 302 q 215 313 262 302 q 127 349 168 325 l 126 438 q 141 568 126 505 q 184 671 157 630 l 92 671 l 92 806 l 783 806 l 783 342 q 735 142 783 222 q 604 23 687 62 q 412 -16 520 -16 z "},"ץ":{"ha":776,"x_min":29,"x_max":751,"o":"m 515 351 q 549 282 538 317 q 559 201 559 246 l 559 -282 l 396 -282 l 396 219 q 370 304 396 265 l 29 806 l 222 806 l 408 510 l 558 806 l 751 806 l 509 360 l 515 351 z "},"צ":{"ha":791,"x_min":29,"x_max":751,"o":"m 511 363 l 706 81 l 706 0 l 87 0 l 87 136 l 485 136 l 29 806 l 222 806 l 410 513 l 558 806 l 751 806 l 511 363 z "},"ק":{"ha":888,"x_min":117,"x_max":771,"o":"m 399 132 q 546 190 492 136 q 599 344 599 245 l 599 671 l 117 671 l 117 806 l 771 806 l 771 347 q 726 163 771 241 q 597 45 681 86 q 399 0 513 3 l 399 132 m 127 292 q 139 395 127 358 q 170 463 151 432 l 309 463 q 294 307 294 408 l 294 -282 l 127 -282 l 127 292 z "},"ר":{"ha":687,"x_min":33,"x_max":591,"o":"m 418 547 q 385 638 418 606 q 289 671 351 671 l 33 671 l 33 806 l 298 806 q 455 774 389 806 q 556 681 521 742 q 591 536 591 621 l 591 0 l 418 0 l 418 547 z "},"ש":{"ha":1156,"x_min":117,"x_max":1040,"o":"m 283 170 q 414 129 345 144 q 544 114 483 114 q 715 141 641 114 q 831 225 789 169 q 873 368 873 282 l 873 806 l 1040 806 l 1040 349 q 975 145 1040 229 q 799 19 909 61 q 551 -22 688 -22 q 332 3 445 -22 q 117 77 218 28 l 117 806 l 283 806 l 283 170 m 453 241 q 481 314 471 267 q 492 420 492 361 l 492 806 l 659 806 l 659 454 q 642 329 659 385 q 594 239 625 273 l 453 241 z "},"ת":{"ha":884,"x_min":7,"x_max":787,"o":"m 467 806 q 707 730 627 806 q 787 500 787 653 l 787 0 l 616 0 l 615 512 q 580 633 615 595 q 469 671 545 671 l 359 671 q 334 583 344 634 q 325 484 325 532 l 325 233 q 266 53 325 116 q 98 -9 207 -9 q 7 -2 57 -9 l 7 133 q 52 131 31 131 q 132 159 106 131 q 157 245 157 186 l 157 469 q 172 578 157 522 q 211 671 186 635 l 73 671 l 73 806 l 467 806 z "},"ײַ":{"ha":900,"x_min":36,"x_max":794,"o":"m 36 0 m 622 671 l 486 671 l 486 806 l 794 806 l 794 351 l 622 351 l 622 671 m 172 671 l 36 671 l 36 806 l 345 806 l 345 351 l 172 351 l 172 671 m 110 -127 l 410 -127 l 410 -205 l 110 -205 l 110 -127 z "},"ﬠ":{"ha":861,"x_min":41,"x_max":744,"o":"m 744 806 l 722 331 q 669 137 716 217 q 540 15 623 56 q 345 -26 457 -26 q 41 36 208 -26 l 79 163 q 296 109 199 115 q 249 167 269 134 q 220 239 229 200 l 92 806 l 264 806 l 389 225 q 423 125 403 161 q 514 197 481 147 q 551 323 547 247 l 572 806 l 744 806 z "},"ﬡ":{"ha":1256,"x_min":88,"x_max":1198,"o":"m 903 256 l 1177 0 l 942 0 l 342 567 q 317 487 325 531 q 309 385 309 444 l 309 0 l 142 0 l 142 388 q 259 645 142 562 l 88 806 l 316 806 l 780 372 l 1006 806 l 1198 806 l 903 256 z "},"ﬢ":{"ha":947,"x_min":41,"x_max":902,"o":"m 902 806 l 902 679 l 734 661 l 734 0 l 562 0 l 562 671 l 41 671 l 41 806 l 902 806 z "},"ﬣ":{"ha":1117,"x_min":98,"x_max":1021,"o":"m 848 547 q 814 638 848 606 q 720 671 781 671 l 99 671 l 99 806 l 728 806 q 886 774 820 806 q 986 681 951 742 q 1021 536 1021 621 l 1021 0 l 848 0 l 848 547 m 98 269 q 125 427 98 351 l 279 448 l 286 441 q 273 359 279 408 q 267 266 267 311 l 267 0 l 98 0 l 98 269 z "},"ﬤ":{"ha":1057,"x_min":48,"x_max":940,"o":"m 457 -24 q 262 -12 370 -24 q 48 25 155 1 l 73 160 q 279 127 180 138 q 451 116 378 116 q 690 171 614 116 q 768 332 767 225 l 768 671 l 76 671 l 76 806 l 940 806 l 940 331 q 813 65 939 155 q 457 -24 687 -24 z "},"ﬥ":{"ha":975,"x_min":50,"x_max":927,"o":"m 927 697 l 523 0 l 340 0 l 720 671 l 50 671 l 50 1005 l 222 1005 l 222 806 l 927 806 l 927 697 z "},"ﬦ":{"ha":1213,"x_min":88,"x_max":1110,"o":"m 88 806 l 1110 806 l 1110 0 l 88 0 l 88 806 m 939 136 l 939 671 l 260 671 l 260 136 l 939 136 z "},"ﬧ":{"ha":957,"x_min":33,"x_max":861,"o":"m 688 547 q 655 638 688 606 q 559 671 621 671 l 33 671 l 33 806 l 568 806 q 726 774 660 806 q 826 681 791 742 q 861 536 861 621 l 861 0 l 688 0 l 688 547 z "},"ﬨ":{"ha":1213,"x_min":7,"x_max":1117,"o":"m 798 806 q 1037 729 957 806 q 1117 500 1117 652 l 1117 0 l 946 0 l 945 512 q 910 633 945 594 q 798 671 874 671 l 359 671 q 334 583 344 634 q 325 484 325 532 l 325 233 q 266 53 325 116 q 98 -9 207 -9 q 7 -2 57 -9 l 7 133 q 52 131 31 131 q 132 159 106 131 q 157 245 157 186 l 157 469 q 172 578 157 522 q 211 671 186 635 l 73 671 l 73 806 l 798 806 z "},"שׁ":{"ha":1156,"x_min":117,"x_max":1040,"o":"m 117 0 m 283 170 q 414 129 345 144 q 544 114 483 114 q 715 141 641 114 q 831 225 789 169 q 873 368 873 282 l 873 806 l 1040 806 l 1040 349 q 975 145 1040 229 q 799 19 909 61 q 551 -22 688 -22 q 332 3 445 -22 q 117 77 218 28 l 117 806 l 283 806 l 283 170 m 453 241 q 481 314 471 267 q 492 420 492 361 l 492 806 l 659 806 l 659 454 q 642 329 659 385 q 594 239 625 273 l 453 241 m 949 910 q 905 926 923 910 q 887 966 887 943 q 905 1006 887 990 q 949 1022 922 1022 q 993 1006 976 1022 q 1010 966 1010 990 q 993 926 1010 941 q 949 910 976 910 z "},"שׂ":{"ha":1156,"x_min":117,"x_max":1040,"o":"m 117 0 m 283 170 q 414 129 345 144 q 544 114 483 114 q 715 141 641 114 q 831 225 789 169 q 873 368 873 282 l 873 806 l 1040 806 l 1040 349 q 975 145 1040 229 q 799 19 909 61 q 551 -22 688 -22 q 332 3 445 -22 q 117 77 218 28 l 117 806 l 283 806 l 283 170 m 453 241 q 481 314 471 267 q 492 420 492 361 l 492 806 l 659 806 l 659 454 q 642 329 659 385 q 594 239 625 273 l 453 241 m 193 910 q 150 926 168 910 q 132 966 132 943 q 149 1006 132 990 q 193 1022 167 1022 q 237 1006 220 1022 q 255 966 255 990 q 237 926 255 941 q 193 910 220 910 z "},"שּׁ":{"ha":1156,"x_min":117,"x_max":1040,"o":"m 117 0 m 283 170 q 414 129 345 144 q 544 114 483 114 q 715 141 641 114 q 831 225 789 169 q 873 368 873 282 l 873 806 l 1040 806 l 1040 349 q 975 145 1040 229 q 799 19 909 61 q 551 -22 688 -22 q 332 3 445 -22 q 117 77 218 28 l 117 806 l 283 806 l 283 170 m 453 241 q 481 314 471 267 q 492 420 492 361 l 492 806 l 659 806 l 659 454 q 642 329 659 385 q 594 239 625 273 l 453 241 m 765 353 q 721 369 739 353 q 703 409 703 385 q 721 449 703 433 q 765 465 739 465 q 809 449 791 465 q 827 409 827 433 q 809 369 827 385 q 765 353 791 353 m 949 910 q 905 926 923 910 q 887 966 887 943 q 905 1006 887 990 q 949 1022 922 1022 q 993 1006 976 1022 q 1010 966 1010 990 q 993 926 1010 941 q 949 910 976 910 z "},"שּׂ":{"ha":1156,"x_min":117,"x_max":1040,"o":"m 117 0 m 283 170 q 414 129 345 144 q 544 114 483 114 q 715 141 641 114 q 831 225 789 169 q 873 368 873 282 l 873 806 l 1040 806 l 1040 349 q 975 145 1040 229 q 799 19 909 61 q 551 -22 688 -22 q 332 3 445 -22 q 117 77 218 28 l 117 806 l 283 806 l 283 170 m 453 241 q 481 314 471 267 q 492 420 492 361 l 492 806 l 659 806 l 659 454 q 642 329 659 385 q 594 239 625 273 l 453 241 m 765 353 q 721 369 739 353 q 703 409 703 385 q 721 449 703 433 q 765 465 739 465 q 809 449 791 465 q 827 409 827 433 q 809 369 827 385 q 765 353 791 353 m 193 910 q 150 926 168 910 q 132 966 132 943 q 149 1006 132 990 q 193 1022 167 1022 q 237 1006 220 1022 q 255 966 255 990 q 237 926 255 941 q 193 910 220 910 z "},"אַ":{"ha":915,"x_min":88,"x_max":857,"o":"m 88 0 m 606 346 l 851 0 l 659 0 l 331 464 q 297 416 308 444 q 286 349 286 387 l 286 0 l 119 0 l 119 279 q 154 454 119 387 q 264 557 189 522 l 88 806 l 281 806 l 500 495 l 664 806 l 857 806 l 606 346 m 318 -127 l 618 -127 l 618 -205 l 318 -205 l 318 -127 z "},"אָ":{"ha":915,"x_min":88,"x_max":857,"o":"m 88 0 m 606 346 l 851 0 l 659 0 l 331 464 q 297 416 308 444 q 286 349 286 387 l 286 0 l 119 0 l 119 279 q 154 454 119 387 q 264 557 189 522 l 88 806 l 281 806 l 500 495 l 664 806 l 857 806 l 606 346 m 469 -382 q 425 -366 443 -382 q 408 -326 408 -349 q 410 -309 408 -316 q 420 -290 413 -301 q 436 -254 430 -272 q 444 -205 442 -236 l 332 -205 l 332 -127 l 605 -127 l 605 -205 l 493 -205 q 502 -254 496 -236 q 518 -289 509 -272 q 527 -308 524 -300 q 530 -326 530 -316 q 513 -366 530 -350 q 469 -382 496 -382 z "},"אּ":{"ha":915,"x_min":88,"x_max":857,"o":"m 88 0 m 606 346 l 851 0 l 659 0 l 331 464 q 297 416 308 444 q 286 349 286 387 l 286 0 l 119 0 l 119 279 q 154 454 119 387 q 264 557 189 522 l 88 806 l 281 806 l 500 495 l 664 806 l 857 806 l 606 346 m 411 73 q 367 90 385 73 q 349 130 349 106 q 367 169 349 153 q 411 185 385 185 q 455 169 437 185 q 473 130 473 153 q 455 89 473 105 q 411 73 437 73 z "},"בּ":{"ha":745,"x_min":38,"x_max":718,"o":"m 38 0 m 718 130 l 718 0 l 38 0 l 38 136 l 450 136 l 450 514 q 411 633 450 595 q 289 671 372 671 l 82 671 l 82 806 l 300 806 q 539 729 456 806 q 622 507 622 652 l 622 142 l 718 130 m 247 353 q 203 369 220 353 q 185 409 185 385 q 203 449 185 433 q 247 465 220 465 q 291 449 273 465 q 309 409 309 433 q 291 369 309 385 q 247 353 273 353 z "},"גּ":{"ha":577,"x_min":11,"x_max":519,"o":"m 11 0 m 54 -7 q 11 -4 28 -7 l 11 152 q 64 148 34 148 q 204 194 149 150 q 282 315 260 239 l 282 671 l 102 671 l 102 806 l 451 806 l 451 395 q 464 268 451 331 l 519 0 l 359 0 l 312 214 l 308 214 q 263 103 298 153 q 173 22 227 52 q 54 -7 118 -7 m 125 353 q 81 369 98 353 q 63 409 63 385 q 81 449 63 433 q 125 465 98 465 q 169 449 151 465 q 186 409 186 433 q 169 369 186 385 q 125 353 151 353 z "},"דּ":{"ha":757,"x_min":41,"x_max":712,"o":"m 41 0 m 712 806 l 712 671 l 574 671 l 574 0 l 401 0 l 401 671 l 41 671 l 41 806 l 712 806 m 207 353 q 163 369 180 353 q 145 409 145 385 q 163 449 145 433 q 207 465 180 465 q 251 449 233 465 q 269 409 269 433 q 251 369 269 385 q 207 353 233 353 z "},"הּ":{"ha":842,"x_min":98,"x_max":746,"o":"m 98 0 m 574 514 q 535 633 574 595 q 412 671 496 671 l 99 671 l 99 806 l 424 806 q 663 729 580 806 q 746 507 746 652 l 746 0 l 574 0 l 574 514 m 98 276 q 110 380 98 343 q 140 448 121 418 l 279 448 q 264 292 264 389 l 264 0 l 98 0 l 98 276 m 420 353 q 376 369 393 353 q 358 409 358 385 q 376 449 358 433 q 420 465 393 465 q 464 449 446 465 q 481 409 481 433 q 464 369 481 385 q 420 353 446 353 z "},"וּ":{"ha":430,"x_min":-30,"x_max":313,"o":"m 0 0 m 141 671 l 60 671 l 60 806 l 313 806 l 313 0 l 141 0 l 141 671 m 32 353 q -12 369 5 353 q -30 409 -30 385 q -12 449 -30 433 q 32 465 5 465 q 76 449 58 465 q 94 409 94 433 q 76 369 94 385 q 32 353 58 353 z "},"זּ":{"ha":517,"x_min":48,"x_max":474,"o":"m 48 0 m 100 665 l 48 676 l 48 806 l 470 806 l 469 671 l 269 671 l 375 0 l 198 0 l 100 665 m 412 353 q 368 369 386 353 q 351 409 351 385 q 368 449 351 433 q 412 465 386 465 q 456 449 439 465 q 474 409 474 433 q 456 369 474 385 q 412 353 439 353 z "},"טּ":{"ha":873,"x_min":117,"x_max":791,"o":"m 117 0 m 454 -16 q 278 26 355 -16 q 159 145 201 68 q 117 321 117 221 l 117 806 l 289 806 l 289 304 q 310 207 289 249 q 368 141 330 164 q 454 118 405 118 q 541 141 503 118 q 599 207 578 164 q 620 304 620 249 l 620 553 q 594 643 620 612 q 519 674 568 674 q 434 656 481 674 l 414 768 q 493 802 449 789 q 575 814 536 814 q 690 785 642 814 q 765 699 739 755 q 791 568 791 644 l 791 321 q 749 145 791 221 q 631 26 707 68 q 454 -16 555 -16 m 454 353 q 410 369 428 353 q 393 409 393 385 q 410 449 393 433 q 454 465 428 465 q 498 449 481 465 q 516 409 516 433 q 498 369 516 385 q 454 353 481 353 z "},"יּ":{"ha":450,"x_min":-12,"x_max":345,"o":"m 0 351 m 172 671 l 36 671 l 36 806 l 345 806 l 345 351 l 172 351 l 172 671 m 50 467 q 5 484 23 467 q -12 524 -12 500 q 5 563 -12 547 q 50 579 23 579 q 94 563 76 579 q 111 524 111 547 q 94 483 111 499 q 50 467 76 467 z "},"ךּ":{"ha":708,"x_min":45,"x_max":591,"o":"m 45 0 m 422 671 l 45 671 l 45 806 l 591 806 l 591 -282 l 422 -282 l 422 671 m 215 374 q 171 390 189 374 q 153 430 153 406 q 171 470 153 454 q 215 486 189 486 q 259 470 241 486 q 277 430 277 454 q 259 390 277 406 q 215 374 241 374 z "},"כּ":{"ha":758,"x_min":48,"x_max":642,"o":"m 48 0 m 281 -12 q 48 21 177 -12 l 75 148 q 261 122 180 122 q 417 172 366 123 q 469 314 469 220 l 469 671 l 79 671 l 79 806 l 642 806 l 642 347 q 546 76 642 165 q 281 -12 451 -12 m 261 353 q 217 369 235 353 q 199 409 199 385 q 217 449 199 433 q 261 465 235 465 q 305 449 288 465 q 323 409 323 433 q 305 369 323 385 q 261 353 288 353 z "},"לּ":{"ha":735,"x_min":50,"x_max":687,"o":"m 50 0 m 687 697 l 407 0 l 224 0 l 501 671 l 50 671 l 50 1042 l 222 1042 l 222 806 l 687 806 l 687 697 m 203 396 q 159 412 177 396 q 142 452 142 429 q 159 492 142 476 q 203 508 177 508 q 248 492 230 508 q 265 452 265 476 q 248 412 265 428 q 203 396 230 396 z "},"מּ":{"ha":904,"x_min":80,"x_max":808,"o":"m 80 0 m 167 481 q 196 586 174 536 q 250 663 219 635 q 261 671 254 667 l 260 674 q 191 658 232 669 q 118 635 149 647 l 80 762 q 260 807 159 790 q 450 825 362 825 q 716 734 625 825 q 808 468 807 644 l 808 0 l 465 0 l 465 135 l 635 135 l 635 490 q 595 633 635 583 q 481 683 555 683 q 382 635 420 683 q 334 502 344 588 l 281 0 l 111 0 l 167 481 m 479 353 q 435 369 453 353 q 418 409 418 385 q 435 449 418 433 q 479 465 453 465 q 524 449 506 465 q 541 409 541 433 q 524 369 541 385 q 479 353 506 353 z "},"נּ":{"ha":531,"x_min":41,"x_max":414,"o":"m 41 0 m 184 -14 q 114 -9 147 -14 q 41 3 81 -5 l 43 134 q 142 127 89 127 q 218 155 193 127 q 243 243 243 184 l 243 671 l 94 671 l 94 806 l 414 806 l 414 230 q 354 50 414 113 q 184 -14 294 -14 m 105 353 q 61 369 79 353 q 43 409 43 385 q 61 449 43 433 q 105 465 79 465 q 149 449 132 465 q 167 409 167 433 q 149 369 167 385 q 105 353 132 353 z "},"סּ":{"ha":895,"x_min":54,"x_max":810,"o":"m 54 0 m 458 -16 q 275 31 355 -16 q 152 163 196 78 q 106 359 107 248 l 106 423 q 118 515 105 468 q 153 603 131 563 q 201 664 175 642 q 210 671 205 668 l 209 674 q 153 662 188 671 q 87 645 117 654 l 54 772 q 239 810 135 795 q 433 825 344 825 q 637 781 552 825 q 766 651 722 736 q 810 446 810 566 l 810 359 q 766 163 810 248 q 642 31 722 78 q 458 -16 562 -16 m 458 127 q 552 156 511 127 q 616 237 593 185 q 639 358 639 290 l 639 444 q 590 620 639 557 q 454 683 541 683 q 326 617 372 683 q 277 434 279 552 l 277 358 q 300 237 277 290 q 363 156 323 185 q 458 127 404 127 m 459 353 q 415 369 433 353 q 397 409 397 385 q 415 449 397 433 q 459 465 433 465 q 503 449 486 465 q 521 409 521 433 q 503 369 521 385 q 459 353 486 353 z "},"ףּ":{"ha":850,"x_min":92,"x_max":734,"o":"m 92 0 m 734 -282 l 564 -282 l 564 671 l 332 671 q 304 584 314 633 q 294 486 294 534 l 294 405 q 381 396 323 396 l 381 268 q 321 265 353 265 q 215 277 262 265 q 127 312 168 288 l 126 433 q 141 565 125 500 q 184 671 157 630 l 92 671 l 92 806 l 734 806 l 734 -282 m 431 468 q 387 484 404 468 q 369 524 369 500 q 387 564 369 548 q 431 580 404 580 q 475 564 457 580 q 492 524 492 548 q 475 484 492 500 q 431 468 457 468 z "},"פּ":{"ha":899,"x_min":92,"x_max":783,"o":"m 92 0 m 412 -16 q 269 -3 346 -16 q 125 33 192 9 l 157 159 q 284 132 220 141 q 397 122 349 122 q 556 172 501 123 q 610 314 610 220 l 610 671 l 332 671 q 304 586 314 633 q 294 492 294 539 l 294 441 q 381 433 323 433 l 381 304 q 321 302 353 302 q 215 313 262 302 q 127 349 168 325 l 126 438 q 141 568 126 505 q 184 671 157 630 l 92 671 l 92 806 l 783 806 l 783 342 q 735 142 783 222 q 604 23 687 62 q 412 -16 520 -16 m 456 478 q 412 494 430 478 q 395 534 395 511 q 412 574 395 558 q 456 590 430 590 q 500 574 483 590 q 518 534 518 558 q 500 494 518 510 q 456 478 483 478 z "},"צּ":{"ha":791,"x_min":29,"x_max":751,"o":"m 511 363 l 706 81 l 706 0 l 87 0 l 87 136 l 485 136 l 29 806 l 222 806 l 410 513 l 558 806 l 751 806 l 511 363 m 270 269 q 252 229 270 245 q 208 213 235 213 q 164 229 182 213 q 146 269 146 245 q 164 309 146 293 q 208 325 182 325 q 252 309 235 325 q 270 269 270 293 z "},"קּ":{"ha":888,"x_min":117,"x_max":771,"o":"m 117 0 m 399 132 q 546 190 492 136 q 599 344 599 245 l 599 671 l 117 671 l 117 806 l 771 806 l 771 347 q 726 163 771 241 q 597 45 681 86 q 399 0 513 3 l 399 132 m 127 292 q 139 395 127 358 q 170 463 151 432 l 309 463 q 294 307 294 408 l 294 -282 l 127 -282 l 127 292 m 444 353 q 400 369 418 353 q 382 409 382 385 q 400 449 382 433 q 444 465 418 465 q 488 449 471 465 q 506 409 506 433 q 488 369 506 385 q 444 353 471 353 z "},"רּ":{"ha":687,"x_min":33,"x_max":591,"o":"m 33 0 m 418 547 q 385 638 418 606 q 289 671 351 671 l 33 671 l 33 806 l 298 806 q 455 774 389 806 q 556 681 521 742 q 591 536 591 621 l 591 0 l 418 0 l 418 547 m 212 353 q 168 369 186 353 q 151 409 151 385 q 168 449 151 433 q 212 465 186 465 q 256 449 239 465 q 274 409 274 433 q 256 369 274 385 q 212 353 239 353 z "},"שּ":{"ha":1156,"x_min":117,"x_max":1040,"o":"m 117 0 m 283 170 q 414 129 345 144 q 544 114 483 114 q 715 141 641 114 q 831 225 789 169 q 873 368 873 282 l 873 806 l 1040 806 l 1040 349 q 975 145 1040 229 q 799 19 909 61 q 551 -22 688 -22 q 332 3 445 -22 q 117 77 218 28 l 117 806 l 283 806 l 283 170 m 453 241 q 481 314 471 267 q 492 420 492 361 l 492 806 l 659 806 l 659 454 q 642 329 659 385 q 594 239 625 273 l 453 241 m 765 353 q 721 369 739 353 q 703 409 703 385 q 721 449 703 433 q 765 465 739 465 q 809 449 791 465 q 827 409 827 433 q 809 369 827 385 q 765 353 791 353 z "},"תּ":{"ha":884,"x_min":7,"x_max":787,"o":"m 7 0 m 467 806 q 707 730 627 806 q 787 500 787 653 l 787 0 l 616 0 l 615 512 q 580 633 615 595 q 469 671 545 671 l 359 671 q 334 583 344 634 q 325 484 325 532 l 325 233 q 266 53 325 116 q 98 -9 207 -9 q 7 -2 57 -9 l 7 133 q 52 131 31 131 q 132 159 106 131 q 157 245 157 186 l 157 469 q 172 578 157 522 q 211 671 186 635 l 73 671 l 73 806 l 467 806 m 469 353 q 425 369 443 353 q 408 409 408 385 q 425 449 408 433 q 469 465 443 465 q 513 449 496 465 q 531 409 531 433 q 513 369 531 385 q 469 353 496 353 z "},"וֹ":{"ha":430,"x_min":60,"x_max":313,"o":"m 60 0 m 141 671 l 60 671 l 60 806 l 313 806 l 313 0 l 141 0 l 141 671 m 189 910 q 144 926 162 910 q 127 966 127 943 q 144 1006 127 990 q 189 1022 162 1022 q 233 1006 215 1022 q 250 966 250 990 q 233 926 250 941 q 189 910 215 910 z "},"בֿ":{"ha":745,"x_min":38,"x_max":718,"o":"m 38 0 m 718 130 l 718 0 l 38 0 l 38 136 l 450 136 l 450 514 q 411 633 450 595 q 289 671 372 671 l 82 671 l 82 806 l 300 806 q 539 729 456 806 q 622 507 622 652 l 622 142 l 718 130 m 155 1015 l 519 1015 l 519 924 l 155 924 l 155 1015 z "},"כֿ":{"ha":758,"x_min":48,"x_max":642,"o":"m 48 0 m 281 -12 q 48 21 177 -12 l 75 148 q 261 122 180 122 q 417 172 366 123 q 469 314 469 220 l 469 671 l 79 671 l 79 806 l 642 806 l 642 347 q 546 76 642 165 q 281 -12 451 -12 m 155 1015 l 519 1015 l 519 924 l 155 924 l 155 1015 z "},"פֿ":{"ha":899,"x_min":92,"x_max":783,"o":"m 92 0 m 412 -16 q 269 -3 346 -16 q 125 33 192 9 l 157 159 q 284 132 220 141 q 397 122 349 122 q 556 172 501 123 q 610 314 610 220 l 610 671 l 332 671 q 304 586 314 633 q 294 492 294 539 l 294 441 q 381 433 323 433 l 381 304 q 321 302 353 302 q 215 313 262 302 q 127 349 168 325 l 126 438 q 141 568 126 505 q 184 671 157 630 l 92 671 l 92 806 l 783 806 l 783 342 q 735 142 783 222 q 604 23 687 62 q 412 -16 520 -16 m 262 1015 l 627 1015 l 627 924 l 262 924 l 262 1015 z "},"⁄":{"ha":626,"x_min":29,"x_max":598,"o":"m 29 123 l 511 895 l 598 846 l 116 74 l 29 123 z "},"₀":{"ha":515,"x_min":51,"x_max":463,"o":"m 51 0 m 463 -32 q 408 -198 463 -142 q 258 -254 353 -254 q 107 -198 163 -254 q 51 -32 51 -142 l 51 72 q 106 239 51 182 q 256 296 162 296 q 408 239 352 296 q 463 72 463 182 l 463 -32 m 336 80 q 256 193 336 193 q 179 80 179 193 l 179 -39 q 199 -125 179 -98 q 258 -152 219 -152 q 316 -125 296 -152 q 336 -39 336 -98 l 336 80 z "},"₁":{"ha":515,"x_min":88,"x_max":350,"o":"m 88 0 m 223 -247 l 223 138 l 88 106 l 88 206 l 337 288 l 350 288 l 350 -247 l 223 -247 z "},"₂":{"ha":515,"x_min":41,"x_max":469,"o":"m 41 0 m 53 -247 l 53 -161 l 248 18 q 304 81 286 52 q 322 130 322 110 q 304 176 322 159 q 252 193 286 193 q 190 171 211 193 q 169 113 169 149 l 41 113 q 66 205 41 163 q 138 271 91 247 q 247 296 184 296 q 397 252 343 296 q 451 131 451 208 q 435 62 451 94 q 391 1 420 31 q 311 -71 361 -28 l 218 -144 l 469 -144 l 469 -247 l 53 -247 z "},"₃":{"ha":515,"x_min":37,"x_max":463,"o":"m 37 0 m 362 28 q 463 -97 463 1 q 435 -181 463 -146 q 357 -236 406 -217 q 245 -254 307 -254 q 143 -237 191 -254 q 66 -183 96 -220 q 37 -91 37 -146 l 165 -91 q 189 -134 165 -117 q 252 -152 213 -152 q 314 -134 292 -152 q 335 -87 335 -116 q 311 -35 335 -51 q 242 -18 288 -18 l 182 -18 l 182 39 l 182 70 l 242 70 q 304 87 283 70 q 326 135 326 104 q 307 177 326 160 q 248 193 288 193 q 194 180 216 193 q 173 144 173 167 l 45 144 q 72 225 45 191 q 144 278 98 260 q 245 296 190 296 q 397 256 340 296 q 454 143 454 216 q 430 74 454 104 q 362 28 406 44 z "},"₄":{"ha":515,"x_min":36,"x_max":477,"o":"m 36 0 m 477 -136 l 412 -136 l 412 -247 l 284 -247 l 284 -136 l 43 -136 l 36 -53 l 283 288 l 384 288 l 412 288 l 412 -33 l 477 -33 l 477 -136 m 284 -33 l 284 129 l 275 114 l 161 -33 l 284 -33 z "},"₅":{"ha":515,"x_min":53,"x_max":466,"o":"m 53 0 m 101 288 l 436 288 l 436 186 l 206 186 l 192 87 q 282 105 240 105 q 418 60 370 105 q 466 -68 466 14 q 443 -161 466 -119 q 373 -229 420 -203 q 260 -254 327 -254 q 159 -235 206 -254 q 83 -180 113 -216 q 53 -97 54 -144 l 180 -97 q 260 -152 184 -152 q 319 -129 301 -152 q 338 -68 338 -106 q 315 -7 338 -30 q 249 15 292 15 q 201 8 218 15 q 168 -12 184 1 l 66 14 l 101 288 z "},"₆":{"ha":515,"x_min":52,"x_max":474,"o":"m 52 0 m 303 110 q 396 87 358 110 q 454 23 435 64 q 474 -69 474 -17 q 448 -164 474 -122 q 376 -230 422 -206 q 269 -254 329 -254 q 155 -230 203 -254 q 79 -156 106 -205 q 52 -37 52 -107 l 52 -3 q 91 164 52 97 q 200 264 130 231 q 363 298 269 298 l 382 298 l 382 193 l 374 193 q 241 163 290 193 q 182 62 192 133 q 235 97 204 84 q 303 110 266 110 m 265 -152 q 323 -128 300 -152 q 346 -69 346 -104 q 325 -12 346 -32 q 264 8 303 8 q 213 -3 236 8 q 180 -31 191 -15 l 180 -56 q 202 -128 180 -104 q 265 -152 224 -152 z "},"₇":{"ha":515,"x_min":37,"x_max":466,"o":"m 37 0 m 237 -247 l 102 -247 l 331 185 l 37 185 l 37 288 l 466 288 l 466 216 l 237 -247 z "},"₈":{"ha":515,"x_min":51,"x_max":463,"o":"m 51 0 m 374 28 q 439 -23 416 9 q 463 -99 463 -56 q 407 -214 463 -174 q 258 -254 350 -254 q 108 -214 165 -254 q 51 -99 51 -174 q 75 -23 51 -56 q 141 29 99 10 q 84 77 104 47 q 64 144 64 106 q 117 256 64 217 q 256 296 170 296 q 398 256 345 296 q 451 144 451 217 q 431 77 451 106 q 374 28 410 47 m 256 193 q 209 178 226 193 q 192 136 192 163 q 209 94 192 110 q 258 78 227 78 q 306 94 289 78 q 323 136 323 110 q 306 178 323 163 q 256 193 288 193 m 258 -152 q 314 -135 293 -152 q 336 -87 336 -117 q 314 -42 336 -58 q 256 -25 292 -25 q 200 -41 221 -25 q 179 -87 179 -58 q 200 -135 179 -117 q 258 -152 222 -152 z "},"₉":{"ha":515,"x_min":47,"x_max":459,"o":"m 47 0 m 253 296 q 361 271 315 296 q 433 198 407 247 q 459 77 459 149 l 459 41 q 155 -254 459 -254 l 144 -254 l 144 -152 l 153 -152 q 279 -126 237 -152 q 330 -37 321 -101 q 281 -65 309 -55 q 224 -75 254 -75 q 94 -28 140 -75 q 47 103 47 18 q 74 200 47 155 q 146 270 100 244 q 253 296 193 296 m 257 20 q 302 30 283 20 q 332 55 321 40 l 332 102 q 311 170 332 148 q 253 193 290 193 q 197 167 218 193 q 176 102 176 141 q 196 42 176 64 q 257 20 217 20 z "},"⁰":{"ha":515,"x_min":51,"x_max":463,"o":"m 51 445 m 463 667 q 408 501 463 557 q 258 445 353 445 q 107 501 163 445 q 51 667 51 557 l 51 771 q 106 938 51 882 q 256 995 162 995 q 408 938 352 995 q 463 771 463 882 l 463 667 m 336 779 q 256 892 336 892 q 179 779 179 892 l 179 661 q 199 574 179 601 q 258 547 219 547 q 316 574 296 547 q 336 661 336 601 l 336 779 z "},"¹":{"ha":515,"x_min":88,"x_max":350,"o":"m 88 452 m 223 452 l 223 838 l 88 805 l 88 905 l 337 987 l 350 987 l 350 452 l 223 452 z "},"²":{"ha":515,"x_min":41,"x_max":469,"o":"m 41 452 m 53 452 l 53 538 l 248 717 q 304 780 286 751 q 322 829 322 809 q 304 875 322 858 q 252 892 286 892 q 190 870 211 892 q 169 812 169 848 l 41 812 q 66 904 41 863 q 138 970 91 946 q 247 995 184 995 q 397 951 343 995 q 451 830 451 907 q 435 762 451 793 q 391 701 420 730 q 311 629 361 671 l 218 555 l 469 555 l 469 452 l 53 452 z "},"³":{"ha":515,"x_min":37,"x_max":463,"o":"m 37 445 m 362 727 q 463 602 463 700 q 435 518 463 553 q 357 464 406 482 q 245 445 307 445 q 143 462 191 445 q 66 516 96 479 q 37 608 37 553 l 165 608 q 189 565 165 583 q 252 547 213 547 q 314 565 292 547 q 335 612 335 583 q 311 665 335 648 q 242 681 288 681 l 182 681 l 182 739 l 182 769 l 242 769 q 304 786 283 769 q 326 834 326 804 q 307 876 326 859 q 248 892 288 892 q 194 879 216 892 q 173 844 173 866 l 45 844 q 72 925 45 890 q 144 977 98 959 q 245 995 190 995 q 397 955 340 995 q 454 842 454 916 q 430 773 454 804 q 362 727 406 743 z "},"⁴":{"ha":515,"x_min":36,"x_max":477,"o":"m 36 452 m 477 563 l 412 563 l 412 452 l 284 452 l 284 563 l 43 563 l 36 646 l 283 987 l 384 987 l 412 987 l 412 667 l 477 667 l 477 563 m 284 667 l 284 828 l 275 813 l 161 667 l 284 667 z "},"⁵":{"ha":515,"x_min":53,"x_max":466,"o":"m 53 445 m 101 987 l 436 987 l 436 885 l 206 885 l 192 786 q 282 804 240 804 q 418 759 370 804 q 466 631 466 713 q 443 538 466 581 q 373 471 420 496 q 260 445 327 445 q 159 464 206 445 q 83 519 113 484 q 53 602 54 555 l 180 602 q 260 547 184 547 q 319 570 301 547 q 338 631 338 593 q 315 692 338 669 q 249 714 292 714 q 201 707 218 714 q 168 688 184 700 l 66 713 l 101 987 z "},"⁶":{"ha":515,"x_min":52,"x_max":474,"o":"m 52 445 m 303 809 q 396 786 358 809 q 454 723 435 763 q 474 630 474 682 q 448 535 474 577 q 376 469 422 493 q 269 445 329 445 q 155 470 203 445 q 79 543 106 494 q 52 662 52 592 l 52 696 q 91 863 52 796 q 200 964 130 930 q 363 997 269 997 l 382 997 l 382 892 l 374 892 q 241 862 290 892 q 182 762 192 832 q 235 796 204 783 q 303 809 266 809 m 265 547 q 323 571 300 547 q 346 630 346 595 q 325 687 346 667 q 264 707 303 707 q 213 696 236 707 q 180 668 191 684 l 180 644 q 202 571 180 595 q 265 547 224 547 z "},"⁷":{"ha":515,"x_min":37,"x_max":466,"o":"m 37 452 m 237 452 l 102 452 l 331 884 l 37 884 l 37 987 l 466 987 l 466 916 l 237 452 z "},"⁸":{"ha":515,"x_min":51,"x_max":463,"o":"m 51 445 m 374 728 q 439 676 416 709 q 463 600 463 644 q 407 485 463 525 q 258 445 350 445 q 108 485 165 445 q 51 600 51 525 q 75 676 51 644 q 141 728 99 709 q 84 776 104 747 q 64 844 64 806 q 117 956 64 916 q 256 995 170 995 q 398 956 345 995 q 451 844 451 916 q 431 776 451 806 q 374 728 410 747 m 256 892 q 209 878 226 892 q 192 836 192 863 q 209 793 192 809 q 258 777 227 777 q 306 793 289 777 q 323 836 323 809 q 306 877 323 862 q 256 892 288 892 m 258 547 q 314 565 293 547 q 336 612 336 582 q 314 657 336 641 q 256 674 292 674 q 200 658 221 674 q 179 612 179 642 q 200 565 179 582 q 258 547 222 547 z "},"⁹":{"ha":515,"x_min":47,"x_max":459,"o":"m 47 446 m 253 995 q 361 970 315 995 q 433 897 407 946 q 459 776 459 848 l 459 740 q 155 446 459 446 l 144 446 l 144 547 l 153 547 q 279 573 237 547 q 330 662 321 598 q 281 634 309 644 q 224 624 254 624 q 94 671 140 624 q 47 802 47 718 q 74 899 47 854 q 146 969 100 943 q 253 995 193 995 m 257 720 q 302 729 283 720 q 332 754 321 739 l 332 801 q 311 869 332 847 q 253 892 290 892 q 197 866 218 892 q 176 802 176 840 q 196 742 176 764 q 257 720 217 720 z "},"*":{"ha":616,"x_min":19,"x_max":603,"o":"m 19 718 l 56 834 l 262 754 l 252 988 l 374 988 l 363 749 l 566 828 l 603 711 l 391 651 l 528 471 l 429 398 l 306 594 l 185 404 l 85 474 l 226 659 l 19 718 z "},"\\":{"ha":581,"x_min":12,"x_max":592,"o":"m 180 987 l 592 -85 l 424 -85 l 12 987 l 180 987 z "},"·":{"ha":395,"x_min":96,"x_max":292,"o":"m 194 576 q 266 550 239 576 q 292 484 292 524 q 266 417 292 444 q 194 391 239 391 q 122 417 149 391 q 96 484 96 444 q 122 550 96 524 q 194 576 149 576 z "},"•":{"ha":488,"x_min":92,"x_max":397,"o":"m 92 523 q 111 599 92 566 q 164 651 130 632 q 243 670 198 670 q 325 651 290 670 q 378 599 359 633 q 397 523 397 566 l 397 496 q 378 420 397 453 q 326 369 360 387 q 245 350 291 350 q 164 369 199 350 q 111 420 130 387 q 92 496 92 453 l 92 523 z "},":":{"ha":372,"x_min":87,"x_max":283,"o":"m 87 0 m 186 178 q 257 151 231 178 q 283 84 283 125 q 257 18 283 44 q 186 -8 231 -8 q 114 18 140 -8 q 87 84 87 44 q 114 151 87 125 q 186 178 140 178 m 186 751 q 257 724 231 751 q 283 657 283 698 q 257 591 283 617 q 186 565 231 565 q 114 591 140 565 q 87 657 87 617 q 114 724 87 698 q 186 751 140 751 z "},",":{"ha":310,"x_min":20,"x_max":240,"o":"m 239 41 q 204 -103 239 -29 q 111 -226 169 -178 l 20 -174 q 72 -71 54 -118 q 90 35 90 -24 l 90 161 l 240 161 l 239 41 z "},"…":{"ha":987,"x_min":94,"x_max":902,"o":"m 94 0 m 192 178 q 263 151 237 178 q 290 84 290 125 q 263 18 290 44 q 192 -8 237 -8 q 120 18 146 -8 q 94 84 94 44 q 120 151 94 125 q 192 178 146 178 m 503 178 q 574 151 548 178 q 601 84 601 125 q 574 18 601 44 q 503 -8 548 -8 q 431 18 458 -8 q 405 84 405 44 q 431 151 405 125 q 503 178 458 178 m 804 178 q 876 151 849 178 q 902 84 902 125 q 876 18 902 44 q 804 -8 849 -8 q 732 18 759 -8 q 706 84 706 44 q 732 151 706 125 q 804 178 759 178 z "},"!":{"ha":373,"x_min":96,"x_max":287,"o":"m 117 293 l 100 987 l 279 987 l 262 293 l 117 293 m 191 172 q 261 146 235 172 q 287 81 287 120 q 261 16 287 41 q 191 -9 235 -9 q 121 16 147 -9 q 96 81 96 41 q 121 146 96 120 q 191 172 147 172 z "},"¡":{"ha":372,"x_min":90,"x_max":281,"o":"m 186 566 q 116 591 142 566 q 90 656 90 617 q 116 721 90 696 q 186 747 142 747 q 256 721 230 747 q 281 656 281 696 q 256 591 281 617 q 186 566 230 566 m 260 447 l 277 -248 l 98 -248 l 115 447 l 260 447 z "},"#":{"ha":845,"x_min":63,"x_max":820,"o":"m 657 596 l 618 387 l 768 387 l 768 278 l 599 278 l 547 0 l 432 0 l 484 278 l 334 278 l 283 0 l 168 0 l 220 278 l 63 278 l 63 387 l 239 387 l 278 596 l 114 596 l 114 705 l 298 705 l 351 987 l 465 987 l 413 705 l 563 705 l 615 987 l 730 987 l 677 705 l 820 705 l 820 596 l 657 596 m 543 596 l 393 596 l 354 387 l 504 387 l 543 596 z "},".":{"ha":390,"x_min":91,"x_max":287,"o":"m 189 178 q 260 151 234 178 q 287 84 287 125 q 260 18 287 44 q 189 -8 234 -8 q 117 18 144 -8 q 91 84 91 44 q 117 151 91 125 q 189 178 144 178 z "},"?":{"ha":678,"x_min":39,"x_max":627,"o":"m 237 292 q 248 400 238 357 q 281 477 258 443 q 347 553 304 512 q 409 615 389 593 q 443 667 429 638 q 457 732 457 696 q 426 827 457 794 q 336 861 395 861 q 246 830 283 861 q 208 739 209 800 l 39 739 q 79 882 41 823 q 185 971 118 941 q 336 1001 252 1001 q 493 970 427 1001 q 592 880 558 939 q 627 739 627 821 q 604 634 627 682 q 547 548 581 587 q 457 457 513 509 q 409 386 422 425 q 394 292 395 347 l 237 292 m 320 173 q 390 147 364 173 q 416 82 416 121 q 390 17 416 43 q 320 -8 364 -8 q 250 17 276 -8 q 224 82 224 43 q 250 147 224 121 q 320 173 276 173 z "},"¿":{"ha":678,"x_min":45,"x_max":637,"o":"m 351 566 q 281 592 307 566 q 255 657 255 618 q 281 722 255 696 q 351 747 307 747 q 420 722 394 747 q 446 657 446 696 q 420 592 446 618 q 351 566 394 566 m 431 447 q 420 341 430 383 q 387 264 410 298 q 322 188 365 230 l 309 174 q 257 118 276 141 q 227 67 239 96 q 214 3 214 39 q 247 -90 214 -58 q 338 -121 279 -121 q 430 -90 393 -121 q 467 2 467 -59 l 637 2 q 597 -141 635 -82 q 491 -231 558 -201 q 340 -262 425 -262 q 181 -231 248 -262 q 80 -142 115 -201 q 45 1 45 -83 q 68 106 45 57 q 124 193 91 155 q 213 285 158 232 q 261 355 248 317 q 274 447 273 392 l 431 447 z "},"\"":{"ha":450,"x_min":65,"x_max":393,"o":"m 162 684 l 65 684 l 65 1042 l 186 1042 l 186 949 l 162 684 m 368 684 l 272 684 l 272 1042 l 393 1042 l 393 949 l 368 684 z "},"'":{"ha":233,"x_min":54,"x_max":182,"o":"m 164 689 l 54 689 l 54 1042 l 182 1042 l 182 955 l 164 689 z "},";":{"ha":335,"x_min":33,"x_max":269,"o":"m 33 0 m 172 751 q 243 724 216 751 q 269 657 269 698 q 243 591 269 617 q 172 565 216 565 q 100 591 126 565 q 73 657 73 617 q 100 724 73 698 q 172 751 126 751 m 252 41 q 217 -103 252 -29 q 123 -226 182 -178 l 33 -174 q 85 -71 67 -118 q 102 35 102 -24 l 102 161 l 253 161 l 252 41 z "},"/":{"ha":546,"x_min":0,"x_max":517,"o":"m 0 -85 l 386 987 l 517 987 l 132 -85 l 0 -85 z "},"_":{"ha":626,"x_min":2,"x_max":624,"o":"m 2 -133 l 2 0 l 624 0 l 624 -133 l 2 -133 z "},"{":{"ha":465,"x_min":37,"x_max":445,"o":"m 325 72 q 352 -69 325 -12 q 445 -147 380 -125 l 412 -244 q 224 -126 280 -208 q 168 72 168 -44 l 168 210 q 136 319 168 280 q 37 358 104 358 l 37 456 l 37 481 q 136 520 104 481 q 168 630 168 559 l 168 768 q 224 965 168 884 q 412 1083 280 1046 l 445 987 q 352 908 380 965 q 325 768 325 852 l 325 630 q 296 506 325 560 q 208 420 267 451 q 296 334 267 389 q 325 210 325 279 l 325 72 z "},"}":{"ha":465,"x_min":20,"x_max":427,"o":"m 297 630 q 329 520 297 559 q 427 481 360 481 l 427 388 l 427 358 q 329 319 360 358 q 297 210 297 280 l 297 72 q 241 -126 297 -44 q 53 -244 184 -208 l 20 -147 q 112 -69 85 -125 q 139 72 139 -12 l 139 210 q 170 336 139 281 q 263 420 201 390 q 170 504 201 450 q 139 630 139 558 l 139 768 q 112 908 139 852 q 20 987 85 965 l 53 1083 q 241 965 184 1046 q 297 768 297 884 l 297 630 z "},"[":{"ha":382,"x_min":89,"x_max":368,"o":"m 258 1008 l 258 -90 l 368 -90 l 368 -222 l 89 -222 l 89 1140 l 368 1140 l 368 1008 l 258 1008 z "},"]":{"ha":382,"x_min":9,"x_max":288,"o":"m 288 1140 l 288 -222 l 9 -222 l 9 -90 l 119 -90 l 119 1008 l 9 1008 l 9 1140 l 288 1140 z "},"(":{"ha":485,"x_min":87,"x_max":458,"o":"m 87 401 q 139 731 87 584 q 269 972 191 878 q 425 1105 347 1067 l 458 1008 q 352 885 401 964 q 271 684 302 806 q 239 403 239 562 l 239 389 q 271 107 239 229 q 352 -95 302 -15 q 458 -220 401 -175 l 425 -313 q 269 -181 347 -275 q 139 60 191 -87 q 87 390 87 208 l 87 401 z "},")":{"ha":490,"x_min":27,"x_max":404,"o":"m 404 390 q 351 63 404 210 q 218 -180 298 -84 q 60 -313 139 -276 l 27 -220 q 133 -97 83 -177 q 214 106 182 -17 q 246 389 246 229 l 246 403 q 213 684 246 561 q 131 888 180 808 q 27 1012 81 968 l 60 1105 q 218 971 139 1067 q 351 728 298 876 q 404 401 404 581 l 404 390 z "},"—":{"ha":1072,"x_min":85,"x_max":1008,"o":"m 85 419 l 85 556 l 1008 556 l 1008 419 l 85 419 z "},"–":{"ha":894,"x_min":106,"x_max":799,"o":"m 106 419 l 106 556 l 799 556 l 799 419 l 106 419 z "},"-":{"ha":467,"x_min":52,"x_max":411,"o":"m 52 353 l 52 488 l 411 488 l 411 353 l 52 353 z "},"­":{"ha":407,"x_min":52,"x_max":411,"o":"m 52 353 m 52 353 l 52 488 l 411 488 l 411 353 l 52 353 z "},"«":{"ha":677,"x_min":58,"x_max":614,"o":"m 58 93 m 201 364 l 368 93 l 252 93 l 58 357 l 58 366 l 58 370 l 252 635 l 368 635 l 201 364 m 447 364 l 614 93 l 498 93 l 304 357 l 304 366 l 304 370 l 498 635 l 614 635 l 447 364 z "},"»":{"ha":677,"x_min":62,"x_max":627,"o":"m 62 93 m 372 370 l 372 361 l 372 357 l 178 93 l 62 93 l 229 363 l 62 635 l 178 635 l 372 370 m 627 370 l 627 361 l 627 357 l 433 93 l 317 93 l 484 363 l 317 635 l 433 635 l 627 370 z "},"‹":{"ha":426,"x_min":73,"x_max":383,"o":"m 216 364 l 383 93 l 268 93 l 73 357 l 73 366 l 73 370 l 268 635 l 383 635 l 216 364 z "},"›":{"ha":419,"x_min":57,"x_max":367,"o":"m 367 370 l 367 361 l 367 357 l 172 93 l 57 93 l 224 363 l 57 635 l 172 635 l 367 370 z "},"„":{"ha":531,"x_min":35,"x_max":467,"o":"m 244 48 q 211 -95 244 -20 q 123 -216 177 -169 l 35 -164 q 80 -65 65 -117 q 95 47 95 -14 l 95 174 l 244 174 l 244 48 m 467 48 q 432 -95 467 -20 q 343 -216 397 -169 l 256 -164 q 301 -64 286 -115 q 317 47 317 -14 l 317 174 l 467 174 l 467 48 z "},"“":{"ha":538,"x_min":74,"x_max":511,"o":"m 74 716 m 74 810 q 109 945 74 874 q 198 1061 143 1016 l 283 1008 q 236 915 252 962 q 220 810 220 867 l 220 716 l 74 716 l 74 810 m 302 810 q 337 945 302 874 q 427 1061 372 1016 l 511 1008 q 465 915 481 962 q 449 810 449 867 l 449 716 l 302 716 l 302 810 z "},"”":{"ha":543,"x_min":45,"x_max":481,"o":"m 45 693 m 253 944 q 218 809 253 880 q 130 693 184 739 l 45 746 q 91 840 75 792 q 107 943 107 887 l 107 1042 l 253 1042 l 253 944 m 481 944 q 446 809 481 880 q 357 693 412 739 l 273 746 q 319 840 303 792 q 335 943 335 887 l 335 1042 l 481 1042 l 481 944 z "},"‘":{"ha":307,"x_min":68,"x_max":277,"o":"m 68 810 q 102 945 68 874 q 192 1061 137 1016 l 277 1008 q 230 915 246 962 q 214 810 214 867 l 214 716 l 68 716 l 68 810 z "},"’":{"ha":304,"x_min":36,"x_max":244,"o":"m 244 944 q 210 809 244 880 q 121 693 175 739 l 36 746 q 82 840 66 792 q 98 943 98 887 l 98 1042 l 244 1042 l 244 944 z "},"‚":{"ha":317,"x_min":35,"x_max":244,"o":"m 244 48 q 210 -87 244 -16 q 121 -203 175 -158 l 35 -151 q 80 -58 65 -106 q 95 47 95 -10 l 95 140 l 244 140 l 244 48 z "},"׳":{"ha":276,"x_min":12,"x_max":233,"o":"m 12 640 q 61 735 43 683 q 79 839 79 787 l 79 975 l 233 975 l 233 854 q 200 712 233 783 q 115 596 168 642 l 12 640 z "},"״":{"ha":551,"x_min":25,"x_max":496,"o":"m 25 640 q 75 735 57 683 q 92 839 92 787 l 92 975 l 247 975 l 246 854 q 214 712 246 783 q 129 596 181 642 l 25 640 m 275 640 q 324 735 307 683 q 342 839 342 787 l 342 975 l 496 975 l 496 854 q 463 712 496 783 q 378 596 431 642 l 275 640 z "},"־":{"ha":377,"x_min":41,"x_max":336,"o":"m 41 671 l 41 806 l 336 806 l 336 671 l 41 671 z "},"‏":{"ha":0,"x_min":-636,"x_max":-180,"o":"m -180 896 l -180 789 l -180 -136 l -293 -136 l -293 789 l -456 789 l -344 680 l -481 680 l -636 842 l -485 1013 l -348 1013 l -460 896 l -180 896 z "},"‎":{"ha":0,"x_min":-580,"x_max":-124,"o":"m -124 842 l -279 680 l -416 680 l -304 789 l -467 789 l -467 -136 l -580 -136 l -580 873 l -580 896 l -300 896 l -412 1013 l -275 1013 l -124 842 z "},"‍":{"ha":0,"x_min":-595,"x_max":-195,"o":"m -314 829 l -195 708 l -278 627 l -340 691 l -340 -136 l -453 -136 l -453 688 l -513 627 l -595 708 l -476 829 l -595 952 l -513 1033 l -395 913 l -277 1033 l -195 952 l -314 829 z "},"‌":{"ha":0,"x_min":-452,"x_max":-339,"o":"m -339 838 l -339 -136 l -452 -136 l -452 838 l -339 838 z "},"€":{"ha":791,"x_min":64,"x_max":729,"o":"m 572 127 q 709 149 646 127 l 729 7 q 560 -14 646 -14 q 365 28 450 -14 q 232 153 281 70 q 180 357 183 237 l 64 357 l 64 453 l 180 453 l 180 540 l 64 540 l 64 636 l 180 636 q 237 836 187 754 q 372 960 287 918 q 567 1001 456 1001 q 729 980 642 1001 l 709 838 q 574 860 640 860 q 419 805 475 860 q 357 636 363 750 l 595 636 l 595 540 l 355 540 l 355 453 l 595 453 l 595 357 l 356 357 q 416 182 359 237 q 572 127 472 127 z "},"¢":{"ha":782,"x_min":68,"x_max":703,"o":"m 401 122 q 472 138 440 122 q 523 181 504 153 q 544 244 542 209 l 703 244 q 670 130 701 183 q 586 41 640 77 q 467 -7 533 5 l 467 -166 l 332 -166 l 332 -7 q 186 59 245 8 q 98 187 127 111 q 68 355 68 264 l 68 378 q 98 547 68 470 q 186 674 127 623 q 332 741 245 726 l 332 894 l 467 894 l 467 742 q 590 693 537 730 q 672 598 642 656 q 703 470 701 541 l 544 470 q 524 542 542 509 q 475 593 507 574 q 401 612 444 612 q 274 546 311 612 q 237 378 237 480 l 237 355 q 401 122 237 122 z "},"¤":{"ha":973,"x_min":62,"x_max":921,"o":"m 893 412 q 876 287 893 347 q 827 176 859 227 l 921 80 l 825 -18 l 735 73 q 621 9 684 31 q 490 -14 558 -14 q 359 8 422 -14 q 245 72 297 31 l 158 -18 l 62 80 l 154 174 q 104 286 121 225 q 86 412 86 347 q 105 544 86 481 q 160 660 124 607 l 62 760 l 158 857 l 254 759 q 365 817 305 797 q 490 837 425 837 q 615 816 555 837 q 726 758 675 795 l 825 858 l 921 760 l 821 658 q 874 543 855 606 q 893 412 893 481 m 490 113 q 629 153 566 113 q 730 261 692 193 q 767 412 767 330 q 730 563 767 494 q 629 671 692 631 q 490 711 566 711 q 350 671 414 711 q 249 563 286 631 q 212 412 212 494 q 249 261 212 330 q 350 153 286 193 q 490 113 414 113 z "},"$":{"ha":791,"x_min":68,"x_max":722,"o":"m 722 260 q 651 72 722 142 q 456 -12 580 2 l 456 -144 l 348 -144 l 348 -12 q 208 31 271 -3 q 106 133 144 66 q 68 302 68 201 l 237 302 q 283 166 237 207 q 399 125 330 125 q 513 161 473 125 q 553 258 553 197 q 517 354 553 316 q 393 422 480 391 q 236 493 298 454 q 140 589 174 532 q 106 728 106 646 q 137 861 106 803 q 227 955 169 920 q 361 999 284 990 l 361 1147 l 470 1147 l 470 998 q 652 899 587 981 q 718 682 718 817 l 549 682 q 512 814 549 766 q 410 863 475 863 q 308 826 342 863 q 274 728 274 790 q 289 662 274 690 q 340 612 304 635 q 437 566 375 589 q 594 493 533 532 q 688 398 655 454 q 722 260 722 341 z "},"£":{"ha":819,"x_min":64,"x_max":780,"o":"m 780 141 l 779 0 l 67 0 l 67 141 l 123 141 q 166 189 154 149 q 178 281 178 230 l 174 404 l 64 404 l 64 543 l 170 543 l 164 705 q 203 863 164 796 q 312 966 242 930 q 472 1001 382 1001 q 632 967 565 1001 q 733 870 699 932 q 768 726 768 808 l 598 726 q 561 828 598 795 q 466 860 524 860 q 401 842 430 860 q 356 789 372 824 q 340 705 340 753 l 346 543 l 557 543 l 557 404 l 351 404 l 355 288 q 312 141 355 196 l 780 141 z "},"¥":{"ha":739,"x_min":8,"x_max":731,"o":"m 501 503 l 659 503 l 659 398 l 454 398 l 454 307 l 659 307 l 659 202 l 454 202 l 454 0 l 279 0 l 279 202 l 71 202 l 71 307 l 279 307 l 279 398 l 71 398 l 71 503 l 239 503 l 8 987 l 197 987 l 370 579 l 545 987 l 731 987 l 501 503 z "},"~":{"ha":920,"x_min":79,"x_max":842,"o":"m 842 534 q 813 394 842 456 q 732 297 784 332 q 616 262 681 262 q 518 283 562 262 q 422 353 475 304 q 363 399 389 385 q 308 414 336 414 q 238 379 264 414 q 212 288 212 344 l 79 288 q 107 427 79 366 q 186 521 136 488 q 302 554 237 554 q 402 532 357 554 q 498 463 448 510 q 557 417 532 431 q 611 403 583 403 q 664 420 641 403 q 700 467 687 437 q 712 534 712 496 l 842 534 z "},"÷":{"ha":793,"x_min":45,"x_max":733,"o":"m 391 834 q 463 808 437 834 q 490 742 490 783 q 463 677 490 703 q 391 651 437 651 q 320 676 346 651 q 294 742 294 702 q 320 808 294 783 q 391 834 346 834 m 45 394 l 45 540 l 733 540 l 733 394 l 45 394 m 391 281 q 463 256 437 281 q 490 189 490 230 q 463 124 490 149 q 391 98 437 98 q 320 124 346 98 q 294 189 294 149 q 320 256 294 230 q 391 281 346 281 z "},"=":{"ha":780,"x_min":98,"x_max":686,"o":"m 98 526 l 98 666 l 686 666 l 686 526 l 98 526 m 98 238 l 98 378 l 686 378 l 686 238 l 98 238 z "},">":{"ha":722,"x_min":87,"x_max":673,"o":"m 673 496 l 673 384 l 673 361 l 87 109 l 87 275 l 503 431 l 87 583 l 87 747 l 673 496 z "},"<":{"ha":707,"x_min":42,"x_max":612,"o":"m 612 580 l 214 427 l 612 277 l 612 109 l 42 361 l 42 473 l 42 496 l 612 747 l 612 580 z "},"¬":{"ha":768,"x_min":86,"x_max":652,"o":"m 652 546 l 652 430 l 652 254 l 517 254 l 517 430 l 86 430 l 86 546 l 652 546 z "},"−":{"ha":782,"x_min":106,"x_max":684,"o":"m 106 419 l 106 556 l 684 556 l 684 419 l 106 419 z "},"×":{"ha":741,"x_min":52,"x_max":682,"o":"m 469 466 l 682 248 l 580 145 l 367 362 l 154 145 l 52 248 l 265 466 l 52 684 l 154 786 l 367 569 l 580 786 l 682 684 l 469 466 z "},"%":{"ha":1021,"x_min":67,"x_max":962,"o":"m 67 798 q 92 901 67 854 q 165 975 117 947 q 277 1002 212 1002 q 390 975 342 1002 q 463 901 438 947 q 487 798 487 854 l 487 745 q 463 643 487 689 q 391 570 438 597 q 278 543 343 543 q 165 570 213 543 q 92 643 117 597 q 67 745 67 689 l 67 798 m 184 745 q 209 673 184 703 q 278 643 233 643 q 346 673 322 643 q 370 745 370 703 l 370 798 q 346 871 370 841 q 277 901 321 901 q 209 871 233 901 q 184 798 184 841 l 184 745 m 226 123 l 708 895 l 795 846 l 313 74 l 226 123 m 542 242 q 567 345 542 298 q 640 418 592 391 q 751 446 687 446 q 865 418 817 446 q 937 345 912 391 q 962 242 962 298 l 962 189 q 937 86 962 133 q 865 13 912 40 q 753 -14 818 -14 q 640 13 688 -14 q 567 86 592 40 q 542 189 542 133 l 542 242 m 659 189 q 670 139 659 162 q 702 101 681 115 q 753 87 724 87 q 823 116 800 87 q 845 189 845 145 l 845 242 q 821 315 845 286 q 751 345 796 345 q 683 315 707 345 q 659 242 659 286 l 659 189 z "},"+":{"ha":772,"x_min":45,"x_max":722,"o":"m 722 391 l 466 391 l 466 99 l 303 99 l 303 391 l 45 391 l 45 545 l 303 545 l 303 818 l 466 818 l 466 545 l 722 545 l 722 391 z "},"±":{"ha":745,"x_min":64,"x_max":685,"o":"m 685 614 l 685 475 l 454 475 l 454 214 l 304 214 l 304 475 l 64 475 l 64 614 l 304 614 l 304 866 l 454 866 l 454 614 l 685 614 m 84 138 l 661 138 l 661 1 l 84 1 l 84 138 z "},"|":{"ha":349,"x_min":118,"x_max":233,"o":"m 118 -183 l 118 987 l 233 987 l 233 -183 l 118 -183 z "},"¦":{"ha":346,"x_min":92,"x_max":250,"o":"m 92 473 l 92 987 l 250 987 l 250 473 l 92 473 m 92 356 l 250 356 l 250 -183 l 92 -183 l 92 356 z "},"@":{"ha":1243,"x_min":66,"x_max":1181,"o":"m 654 966 q 939 896 820 966 q 1119 697 1057 825 q 1181 395 1181 568 q 1180 353 1181 368 q 1145 174 1177 258 q 1051 38 1114 91 q 891 -14 987 -14 q 789 13 831 -14 q 727 90 747 40 q 647 13 693 39 q 550 -13 601 -13 q 448 18 491 -13 q 381 105 404 48 q 358 237 358 161 q 361 288 358 252 q 416 489 372 402 q 526 624 460 576 q 666 671 591 671 q 750 662 714 671 q 811 638 785 652 q 870 598 836 623 l 835 215 q 833 186 833 195 q 856 106 833 129 q 911 84 878 84 q 994 119 958 84 q 1049 215 1029 154 q 1072 351 1069 275 q 1073 397 1073 382 q 967 741 1073 618 q 652 863 862 863 q 412 793 515 863 q 252 601 309 724 q 186 319 194 478 q 186 275 186 304 q 235 16 186 123 q 379 -146 284 -91 q 607 -202 473 -202 q 727 -189 666 -202 q 831 -153 789 -175 l 858 -247 q 742 -292 812 -276 q 604 -307 672 -307 q 314 -238 435 -307 q 130 -38 193 -170 q 66 277 66 93 q 66 319 66 304 q 149 651 75 505 q 354 882 223 798 q 654 966 484 966 m 591 100 q 657 130 624 100 q 713 220 690 159 l 743 553 q 678 565 711 565 q 556 494 603 565 q 496 288 509 422 q 494 245 494 265 q 519 137 494 174 q 591 100 544 100 z "},"&":{"ha":891,"x_min":57,"x_max":882,"o":"m 686 0 l 631 65 q 514 6 578 26 q 380 -14 450 -14 q 209 22 282 -14 q 96 121 136 58 q 57 267 57 185 q 79 367 57 322 q 140 448 102 411 q 241 528 179 485 q 164 645 190 593 q 139 749 139 696 q 171 884 139 827 q 263 971 203 941 q 401 1001 322 1001 q 530 971 474 1001 q 616 890 586 941 q 647 780 647 840 q 613 662 647 713 q 514 563 578 610 l 447 514 l 635 292 q 676 473 676 375 l 823 473 q 736 172 823 288 l 882 0 l 686 0 m 400 865 q 324 833 351 865 q 297 753 297 801 q 314 688 297 722 q 365 612 332 655 l 424 652 q 484 707 467 680 q 501 773 501 734 q 489 818 501 797 q 454 852 477 839 q 400 865 431 865 m 385 122 q 464 136 425 122 q 538 175 503 149 l 325 426 l 305 412 q 242 340 258 375 q 227 273 227 306 q 245 196 227 230 q 300 142 264 161 q 385 122 336 122 z "},"¶":{"ha":682,"x_min":47,"x_max":581,"o":"m 437 353 l 381 353 q 201 393 276 353 q 86 506 125 434 q 47 670 47 578 q 86 833 47 762 q 201 946 125 905 q 381 987 276 987 l 581 987 l 581 0 l 437 0 l 437 353 z "},"©":{"ha":1088,"x_min":59,"x_max":1022,"o":"m 541 1001 q 782 934 671 1001 q 957 751 892 867 q 1022 494 1022 635 q 957 237 1022 353 q 782 53 892 121 q 541 -14 671 -14 q 299 53 409 -14 q 124 237 189 121 q 59 494 59 353 q 124 751 59 635 q 299 934 189 867 q 541 1001 409 1001 m 541 71 q 740 126 649 71 q 885 280 831 182 q 939 494 939 377 q 885 708 939 612 q 740 861 831 805 q 541 916 649 916 q 340 861 431 916 q 195 708 249 805 q 142 494 142 612 q 195 280 142 377 q 340 126 249 182 q 541 71 432 71 m 758 404 q 698 245 758 300 q 531 191 638 191 q 406 224 459 191 q 323 316 352 257 q 294 454 294 376 l 294 534 q 323 671 294 612 q 406 764 352 731 q 531 797 459 797 q 699 743 638 797 q 759 585 759 689 l 653 585 q 623 677 653 648 q 531 705 593 705 q 434 659 468 705 q 399 535 399 612 l 399 454 q 433 329 399 376 q 531 283 467 283 q 623 311 593 283 q 652 404 652 340 l 758 404 z "},"®":{"ha":1088,"x_min":59,"x_max":1022,"o":"m 541 1001 q 782 934 671 1001 q 957 751 892 867 q 1022 494 1022 635 q 957 237 1022 353 q 782 53 892 121 q 541 -14 671 -14 q 299 53 409 -14 q 124 237 189 121 q 59 494 59 353 q 124 751 59 635 q 299 934 189 867 q 541 1001 409 1001 m 541 71 q 740 126 649 71 q 885 280 831 182 q 939 494 939 377 q 885 708 939 612 q 740 861 831 805 q 541 916 649 916 q 340 861 431 916 q 195 708 249 805 q 142 494 142 612 q 195 280 142 377 q 340 126 249 182 q 541 71 432 71 m 749 311 q 761 225 749 252 l 761 214 l 656 214 q 647 312 647 237 l 647 349 q 625 420 647 397 q 550 443 602 443 l 443 443 l 443 214 l 340 214 l 340 791 l 531 791 q 693 746 634 791 q 751 614 751 701 q 671 493 751 536 q 749 349 749 456 l 749 311 m 540 534 q 618 555 587 534 q 650 612 650 576 q 638 665 650 646 q 602 692 627 684 q 531 701 576 701 l 443 701 l 443 534 l 540 534 z "},"§":{"ha":865,"x_min":61,"x_max":791,"o":"m 677 126 q 745 44 722 92 q 768 -68 768 -3 q 725 -204 768 -148 q 606 -291 683 -261 q 425 -320 528 -320 q 245 -292 327 -320 q 112 -200 163 -264 q 61 -33 61 -136 l 230 -32 q 287 -148 230 -113 q 425 -184 343 -184 q 553 -152 507 -184 q 599 -69 599 -121 q 579 -10 599 -34 q 515 34 560 14 q 384 79 469 54 q 207 143 276 109 q 101 233 138 178 q 64 368 64 287 q 94 476 64 429 q 178 553 123 524 q 110 634 133 587 q 87 747 87 682 q 130 881 87 823 q 250 970 172 939 q 431 1002 328 1002 q 616 968 538 1002 q 735 869 694 934 q 777 711 777 804 l 608 711 q 587 790 608 755 q 527 846 567 825 q 431 866 487 866 q 300 833 345 866 q 256 748 256 800 q 274 685 256 709 q 336 642 292 661 q 469 599 380 623 q 649 535 580 570 q 755 446 718 500 q 791 311 791 392 q 762 202 791 249 q 677 126 732 155 m 233 379 q 250 314 233 338 q 312 269 267 289 q 446 222 356 248 q 550 190 501 208 q 605 234 585 205 q 624 300 624 262 q 604 361 624 336 q 539 408 585 387 q 408 456 493 430 q 302 489 347 472 q 250 446 267 475 q 233 379 233 418 z "},"°":{"ha":530,"x_min":86,"x_max":444,"o":"m 267 1002 q 355 977 314 1002 q 419 910 395 952 q 444 819 444 867 q 419 728 444 769 q 355 662 395 686 q 267 638 314 638 q 177 662 218 638 q 111 728 135 686 q 86 819 86 769 q 111 909 86 867 q 177 977 135 951 q 267 1002 218 1002 m 267 734 q 325 759 301 734 q 349 819 349 783 q 325 881 349 856 q 267 905 301 905 q 224 894 243 905 q 193 863 204 882 q 181 819 181 843 q 193 776 181 795 q 224 746 204 757 q 267 734 243 734 z "},"^":{"ha":595,"x_min":35,"x_max":560,"o":"m 418 494 l 298 807 l 178 494 l 35 494 l 238 987 l 336 987 l 358 987 l 560 494 l 418 494 z "},"﬩":{"ha":757,"x_min":39,"x_max":716,"o":"m 453 818 l 453 533 l 716 533 l 716 389 l 39 389 l 39 533 l 298 533 l 298 818 l 453 818 z "},"̀":{"ha":0,"x_min":-600,"x_max":-276,"o":"m -416 836 l -600 1042 l -409 1042 l -276 836 l -416 836 z "},"́":{"ha":0,"x_min":-458,"x_max":-134,"o":"m -134 1042 l -322 836 l -458 836 l -326 1042 l -134 1042 z "},"̃":{"ha":0,"x_min":-618,"x_max":-119,"o":"m -119 1027 q -139 938 -119 978 q -194 875 -159 898 q -271 852 -229 852 q -323 861 -302 852 q -373 885 -345 869 q -414 906 -396 899 q -454 913 -431 913 q -498 893 -481 913 q -515 844 -515 874 l -618 849 q -599 939 -618 898 q -545 1003 -579 979 q -467 1026 -510 1026 q -422 1019 -442 1026 q -372 996 -401 1011 q -326 973 -345 981 q -283 966 -307 966 q -240 985 -258 966 q -222 1036 -222 1004 l -119 1027 z "},"´":{"ha":454,"x_min":75,"x_max":399,"o":"m 399 1042 l 212 836 l 75 836 l 208 1042 l 399 1042 z "},"¸":{"ha":360,"x_min":73,"x_max":313,"o":"m 211 -35 q 283 -70 254 -42 q 313 -152 313 -98 q 287 -233 313 -198 q 211 -286 262 -267 q 89 -305 161 -305 l 84 -209 q 150 -194 125 -209 q 175 -149 175 -180 q 152 -108 175 -120 q 73 -92 129 -96 l 95 3 l 218 3 l 211 -35 z "},"ˆ":{"ha":679,"x_min":99,"x_max":571,"o":"m 571 846 l 436 846 l 334 951 l 232 846 l 99 846 l 99 855 l 284 1042 l 383 1042 l 571 854 l 571 846 z "},"¨":{"ha":616,"x_min":64,"x_max":550,"o":"m 151 1008 q 213 984 189 1008 q 237 926 237 961 q 213 869 237 892 q 151 846 189 846 q 87 869 111 846 q 64 926 64 892 q 87 985 64 962 q 151 1008 111 1008 m 463 1007 q 526 984 502 1007 q 550 926 550 960 q 526 868 550 891 q 463 845 502 845 q 400 868 424 845 q 376 926 376 891 q 400 984 376 961 q 463 1007 424 1007 z "},"`":{"ha":449,"x_min":34,"x_max":358,"o":"m 218 836 l 34 1042 l 225 1042 l 358 836 l 218 836 z "},"¯":{"ha":673,"x_min":106,"x_max":572,"o":"m 106 876 l 106 984 l 572 984 l 572 876 l 106 876 z "},"˚":{"ha":467,"x_min":82,"x_max":382,"o":"m 232 1066 q 309 1047 274 1066 q 363 996 343 1028 q 382 925 382 963 q 363 855 382 886 q 309 805 343 823 q 232 787 274 787 q 156 805 190 787 q 102 855 121 823 q 82 925 82 886 q 102 996 82 964 q 156 1047 121 1028 q 232 1066 190 1066 m 232 850 q 287 872 265 850 q 308 925 308 895 q 287 979 308 957 q 232 1002 265 1002 q 178 979 199 1002 q 157 925 157 957 q 178 872 157 895 q 232 850 199 850 z "},"˜":{"ha":668,"x_min":83,"x_max":582,"o":"m 582 1027 q 562 938 582 978 q 507 875 542 898 q 430 852 473 852 q 377 861 399 852 q 328 885 355 869 q 287 906 304 899 q 246 913 269 913 q 203 893 220 913 q 185 844 185 874 l 83 849 q 102 939 83 898 q 157 1003 122 979 q 234 1026 191 1026 q 278 1019 258 1026 q 328 996 298 1011 q 376 973 357 981 q 417 966 395 966 q 461 985 444 966 q 479 1036 479 1004 l 582 1027 z "},"ְ":{"ha":0,"x_min":357,"x_max":479,"o":"m 418 -223 q 374 -207 392 -223 q 357 -168 357 -191 q 374 -127 357 -143 q 418 -111 392 -111 q 462 -127 445 -111 q 479 -168 479 -143 q 462 -207 479 -191 q 418 -223 445 -223 m 418 -395 q 374 -379 392 -395 q 357 -339 357 -363 q 374 -299 357 -315 q 418 -283 392 -283 q 462 -299 445 -283 q 479 -339 479 -315 q 462 -379 479 -363 q 418 -395 445 -395 z "},"ֱ":{"ha":0,"x_min":184,"x_max":654,"o":"m 245 -223 q 202 -207 220 -223 q 184 -168 184 -191 q 201 -127 184 -143 q 245 -111 219 -111 q 289 -127 272 -111 q 307 -168 307 -143 q 289 -207 307 -191 q 245 -223 272 -223 m 418 -223 q 374 -207 392 -223 q 357 -168 357 -191 q 374 -127 357 -143 q 418 -111 392 -111 q 462 -127 445 -111 q 479 -168 479 -143 q 462 -207 479 -191 q 418 -223 445 -223 m 593 -223 q 549 -207 566 -223 q 531 -168 531 -191 q 549 -127 531 -143 q 593 -111 566 -111 q 636 -127 619 -111 q 654 -168 654 -143 q 636 -207 654 -191 q 593 -223 619 -223 m 332 -370 q 288 -354 306 -370 q 271 -314 271 -338 q 288 -274 271 -290 q 332 -258 306 -258 q 376 -274 359 -258 q 393 -314 393 -290 q 376 -354 393 -338 q 332 -370 359 -370 m 593 -395 q 549 -379 566 -395 q 531 -339 531 -363 q 549 -299 531 -315 q 593 -283 566 -283 q 636 -299 619 -283 q 654 -339 654 -315 q 636 -379 654 -363 q 593 -395 619 -395 z "},"ֲ":{"ha":0,"x_min":189,"x_max":650,"o":"m 589 -223 q 545 -207 562 -223 q 527 -168 527 -191 q 545 -127 527 -143 q 589 -111 562 -111 q 632 -127 615 -111 q 650 -168 650 -143 q 632 -207 650 -191 q 589 -223 615 -223 m 189 -127 l 474 -127 l 474 -205 l 189 -205 l 189 -127 m 589 -395 q 545 -379 562 -395 q 527 -339 527 -363 q 545 -299 527 -315 q 589 -283 562 -283 q 632 -299 615 -283 q 650 -339 650 -315 q 632 -379 650 -363 q 589 -395 615 -395 z "},"ֳ":{"ha":0,"x_min":188,"x_max":650,"o":"m 589 -223 q 545 -207 562 -223 q 527 -168 527 -191 q 545 -127 527 -143 q 589 -111 562 -111 q 632 -127 615 -111 q 650 -168 650 -143 q 632 -207 650 -191 q 589 -223 615 -223 m 332 -388 q 289 -372 307 -388 q 271 -332 271 -355 q 274 -315 271 -322 q 283 -296 277 -309 q 299 -259 292 -279 q 307 -205 305 -239 l 188 -205 l 188 -127 l 475 -127 l 475 -205 l 357 -205 q 365 -258 359 -239 q 382 -296 372 -278 q 391 -315 388 -309 q 393 -332 393 -322 q 376 -372 393 -356 q 332 -388 359 -388 m 589 -395 q 545 -379 562 -395 q 527 -339 527 -363 q 545 -299 527 -315 q 589 -283 562 -283 q 632 -299 615 -283 q 650 -339 650 -315 q 632 -379 650 -363 q 589 -395 615 -395 z "},"ִ":{"ha":0,"x_min":357,"x_max":479,"o":"m 418 -223 q 374 -207 392 -223 q 357 -168 357 -191 q 374 -127 357 -143 q 418 -111 392 -111 q 462 -127 445 -111 q 479 -168 479 -143 q 462 -207 479 -191 q 418 -223 445 -223 z "},"ֵ":{"ha":0,"x_min":271,"x_max":565,"o":"m 332 -223 q 288 -207 306 -223 q 271 -168 271 -191 q 288 -127 271 -143 q 332 -111 306 -111 q 376 -127 359 -111 q 393 -168 393 -143 q 376 -207 393 -191 q 332 -223 359 -223 m 504 -223 q 460 -207 477 -223 q 442 -168 442 -191 q 460 -127 442 -143 q 504 -111 477 -111 q 548 -127 530 -111 q 565 -168 565 -143 q 548 -207 565 -191 q 504 -223 530 -223 z "},"ֶ":{"ha":0,"x_min":271,"x_max":565,"o":"m 332 -223 q 288 -207 306 -223 q 271 -168 271 -191 q 288 -127 271 -143 q 332 -111 306 -111 q 376 -127 359 -111 q 393 -168 393 -143 q 376 -207 393 -191 q 332 -223 359 -223 m 504 -223 q 460 -207 477 -223 q 442 -168 442 -191 q 460 -127 442 -143 q 504 -111 477 -111 q 548 -127 530 -111 q 565 -168 565 -143 q 548 -207 565 -191 q 504 -223 530 -223 m 418 -370 q 374 -354 392 -370 q 357 -314 357 -338 q 374 -274 357 -290 q 418 -258 392 -258 q 462 -274 445 -258 q 479 -314 479 -290 q 462 -354 479 -338 q 418 -370 445 -370 z "},"ַ":{"ha":0,"x_min":268,"x_max":568,"o":"m 268 -127 l 568 -127 l 568 -205 l 268 -205 l 268 -127 z "},"ׇ":{"ha":0,"x_min":286,"x_max":553,"o":"m 420 -412 q 376 -395 394 -412 q 358 -355 358 -379 q 361 -338 358 -346 q 369 -319 363 -331 q 386 -274 379 -298 q 395 -207 393 -250 l 286 -207 l 286 -127 l 553 -127 l 553 -207 l 445 -207 q 454 -274 448 -250 q 472 -319 461 -298 q 480 -338 477 -331 q 483 -355 483 -346 q 465 -396 483 -380 q 420 -412 448 -412 z "},"ָ":{"ha":0,"x_min":282,"x_max":555,"o":"m 419 -382 q 375 -366 393 -382 q 357 -326 357 -349 q 360 -309 357 -316 q 370 -290 363 -301 q 386 -254 380 -272 q 394 -205 392 -236 l 282 -205 l 282 -127 l 555 -127 l 555 -205 l 443 -205 q 452 -254 446 -236 q 468 -289 458 -272 q 477 -308 474 -300 q 480 -326 480 -316 q 463 -366 480 -350 q 419 -382 446 -382 z "},"ֹ":{"ha":0,"x_min":130,"x_max":254,"o":"m 192 910 q 148 926 165 910 q 130 966 130 943 q 148 1006 130 990 q 192 1022 165 1022 q 236 1006 218 1022 q 254 966 254 990 q 236 926 254 941 q 192 910 218 910 z "},"ֺ":{"ha":0,"x_min":130,"x_max":254,"o":"m 192 910 q 148 926 165 910 q 130 966 130 943 q 148 1006 130 990 q 192 1022 165 1022 q 236 1006 218 1022 q 254 966 254 990 q 236 926 254 941 q 192 910 218 910 z "},"ֻ":{"ha":0,"x_min":357,"x_max":661,"o":"m 418 -223 q 375 -207 393 -223 q 357 -168 357 -191 q 374 -127 357 -143 q 418 -111 392 -111 q 462 -127 445 -111 q 479 -168 479 -143 q 462 -207 479 -191 q 418 -223 445 -223 m 509 -365 q 465 -349 483 -365 q 448 -310 448 -333 q 465 -270 448 -286 q 509 -254 483 -254 q 553 -270 535 -254 q 570 -310 570 -286 q 553 -349 570 -334 q 509 -365 535 -365 m 600 -507 q 556 -491 574 -507 q 538 -452 538 -475 q 556 -412 538 -428 q 600 -395 574 -395 q 644 -412 627 -395 q 661 -452 661 -428 q 644 -492 661 -476 q 600 -507 627 -507 z "},"ּ":{"ha":0,"x_min":159,"x_max":283,"o":"m 221 351 q 177 368 195 351 q 159 408 159 384 q 177 447 159 431 q 221 463 195 463 q 265 447 248 463 q 283 408 283 431 q 265 367 283 383 q 221 351 248 351 z "},"ֿ":{"ha":0,"x_min":156,"x_max":520,"o":"m 156 1015 l 520 1015 l 520 924 l 156 924 l 156 1015 z "},"ׁ":{"ha":0,"x_min":873,"x_max":996,"o":"m 935 910 q 891 926 909 910 q 873 966 873 943 q 890 1006 873 990 q 935 1022 908 1022 q 979 1006 962 1022 q 996 966 996 990 q 979 926 996 941 q 935 910 962 910 z "},"ׂ":{"ha":0,"x_min":117,"x_max":240,"o":"m 178 910 q 135 926 153 910 q 117 966 117 943 q 134 1006 117 990 q 178 1022 152 1022 q 222 1006 205 1022 q 240 966 240 990 q 222 926 240 941 q 178 910 205 910 z "},"ﬅ":{"ha":882,"x_min":29,"x_max":841,"o":"m 783 126 q 841 133 810 126 l 841 3 q 731 -14 791 -14 q 590 36 642 -14 q 538 194 538 85 l 538 609 l 419 609 l 419 734 l 538 734 l 538 899 q 487 914 521 907 q 419 920 452 920 q 338 889 366 920 q 310 803 310 859 l 310 0 l 141 0 l 141 609 l 29 609 l 29 734 l 141 734 l 141 803 q 208 990 141 924 q 395 1056 275 1056 q 552 1036 470 1056 q 707 985 634 1016 l 707 913 l 707 734 l 836 734 l 836 609 l 707 609 l 707 205 q 726 143 707 159 q 783 126 745 126 z "},"ﬆ":{"ha":1168,"x_min":50,"x_max":1132,"o":"m 1075 126 q 1132 133 1101 126 l 1132 3 q 1023 -14 1083 -14 q 881 43 933 -14 q 829 217 829 99 l 829 609 l 715 609 l 715 734 l 829 734 l 829 794 q 797 895 829 860 q 706 929 764 929 q 622 900 650 929 q 594 826 594 871 q 601 763 594 793 q 621 691 608 733 q 646 603 637 642 q 654 513 654 563 l 569 513 l 485 513 q 470 567 485 543 q 427 607 456 592 q 358 622 399 622 q 269 596 300 622 q 238 532 238 570 q 251 490 238 507 q 297 460 264 473 q 387 434 330 446 q 536 388 477 415 q 627 317 595 361 q 659 209 659 274 q 622 94 659 144 q 517 15 585 43 q 360 -14 449 -14 q 193 22 264 -14 q 86 113 123 57 q 50 232 50 170 l 213 232 q 259 141 216 170 q 363 112 302 112 q 459 136 425 112 q 493 200 493 160 q 481 244 493 226 q 434 278 469 262 q 337 307 400 294 q 142 385 211 333 q 74 524 74 436 q 109 636 74 585 q 209 717 144 687 q 358 747 273 747 q 472 732 418 747 q 449 798 457 768 q 441 859 441 829 q 473 960 441 914 q 566 1031 505 1005 q 709 1058 627 1058 q 880 1020 816 1058 q 971 923 945 982 q 998 795 998 864 l 998 734 l 1127 734 l 1127 609 l 998 609 l 998 218 q 1018 146 998 167 q 1075 126 1038 126 z "}}}
